<svg xmlns="http://www.w3.org/2000/svg" viewBox="0 0 1180 844" width="1180" height="844">
<rect width="1180" height="844" fill="#FFFFFF"/>
<text x="30" y="78" font-family="Arial Black, Arial Bold, Helvetica, sans-serif" font-size="56" font-weight="bold" fill="#C0504D">Voter 2 — approves Bob and Cal</text>
<text x="30" y="168" font-family="Arial Black, Arial Bold, Helvetica, sans-serif" font-size="42" font-weight="bold" fill="#000000">Vote for ALL candidates you approve of.</text>
<text x="700" y="292" font-family="Arial Black, Arial Bold, Helvetica, sans-serif" font-size="60" font-weight="bold" fill="#000000" text-anchor="middle">Yes</text>
<text x="960" y="292" font-family="Arial Black, Arial Bold, Helvetica, sans-serif" font-size="60" font-weight="bold" fill="#000000" text-anchor="middle">No</text>
<rect x="0" y="352" width="1180" height="158" fill="#DCE6F1"/>
<line x1="0" y1="352" x2="1180" y2="352" stroke="#95B3D7" stroke-width="7"/>
<text x="118" y="453.0" font-family="Arial Black, Arial Bold, Helvetica, sans-serif" font-size="62" font-weight="bold" fill="#000000">Ann</text>
<ellipse cx="700" cy="431.0" rx="42" ry="36" fill="#FFFFFF" stroke="#595959" stroke-width="5"/>
<ellipse cx="960" cy="431.0" rx="42" ry="36" fill="#000000"/>
<line x1="0" y1="510" x2="1180" y2="510" stroke="#95B3D7" stroke-width="7"/>
<text x="118" y="611.0" font-family="Arial Black, Arial Bold, Helvetica, sans-serif" font-size="62" font-weight="bold" fill="#000000">Bob</text>
<ellipse cx="700" cy="589.0" rx="42" ry="36" fill="#000000"/>
<ellipse cx="960" cy="589.0" rx="42" ry="36" fill="#FFFFFF" stroke="#595959" stroke-width="5"/>
<rect x="0" y="668" width="1180" height="158" fill="#DCE6F1"/>
<line x1="0" y1="668" x2="1180" y2="668" stroke="#95B3D7" stroke-width="7"/>
<text x="118" y="769.0" font-family="Arial Black, Arial Bold, Helvetica, sans-serif" font-size="62" font-weight="bold" fill="#000000">Cal</text>
<ellipse cx="700" cy="747.0" rx="42" ry="36" fill="#000000"/>
<ellipse cx="960" cy="747.0" rx="42" ry="36" fill="#FFFFFF" stroke="#595959" stroke-width="5"/>
<line x1="0" y1="826" x2="1180" y2="826" stroke="#95B3D7" stroke-width="7"/>
</svg>