<svg xmlns="http://www.w3.org/2000/svg" viewBox="0 0 1600 900" width="1600" height="900" font-family="Helvetica,Arial,sans-serif">
<rect x="0.0" y="0.0" width="1600.0" height="900.0" fill="#FFFFFF"/>
<text x="210.0" y="44.0" font-size="27" text-anchor="start" fill="#222222" font-weight="bold">Nine candidates, 25 voters — ranking only five, counted by RCV-IRV</text>
<text x="261.0" y="66.0" font-size="20" text-anchor="middle" fill="#767676" font-weight="normal">Round 1</text>
<text x="444.0" y="66.0" font-size="20" text-anchor="middle" fill="#767676" font-weight="normal">Round 2</text>
<text x="627.0" y="66.0" font-size="20" text-anchor="middle" fill="#767676" font-weight="normal">Round 3</text>
<text x="810.0" y="66.0" font-size="20" text-anchor="middle" fill="#767676" font-weight="normal">Round 4</text>
<text x="993.0" y="66.0" font-size="20" text-anchor="middle" fill="#767676" font-weight="normal">Round 5</text>
<text x="1176.0" y="66.0" font-size="20" text-anchor="middle" fill="#767676" font-weight="normal">Round 6</text>
<text x="1359.0" y="66.0" font-size="20" text-anchor="middle" fill="#767676" font-weight="normal">Round 7</text>
<polygon points="272.0,96.0 276.9,96.0 281.7,96.0 286.2,96.0 290.5,96.0 294.7,96.0 298.7,96.0 302.6,96.0 306.3,96.0 309.9,96.0 313.3,96.0 316.6,96.0 319.8,96.0 322.9,96.0 325.9,96.0 328.8,96.0 331.6,96.0 334.4,96.0 337.1,96.0 339.7,96.0 342.3,96.0 344.9,96.0 347.5,96.0 350.0,96.0 352.5,96.0 355.0,96.0 357.5,96.0 360.1,96.0 362.7,96.0 365.3,96.0 367.9,96.0 370.6,96.0 373.4,96.0 376.2,96.0 379.1,96.0 382.1,96.0 385.2,96.0 388.4,96.0 391.7,96.0 395.1,96.0 398.7,96.0 402.4,96.0 406.3,96.0 410.3,96.0 414.5,96.0 418.8,96.0 423.3,96.0 428.1,96.0 433.0,96.0 433.0,220.4 428.1,220.4 423.3,220.4 418.8,220.4 414.5,220.4 410.3,220.4 406.3,220.4 402.4,220.4 398.7,220.4 395.1,220.4 391.7,220.4 388.4,220.4 385.2,220.4 382.1,220.4 379.1,220.4 376.2,220.4 373.4,220.4 370.6,220.4 367.9,220.4 365.3,220.4 362.7,220.4 360.1,220.4 357.5,220.4 355.0,220.4 352.5,220.4 350.0,220.4 347.5,220.4 344.9,220.4 342.3,220.4 339.7,220.4 337.1,220.4 334.4,220.4 331.6,220.4 328.8,220.4 325.9,220.4 322.9,220.4 319.8,220.4 316.6,220.4 313.3,220.4 309.9,220.4 306.3,220.4 302.6,220.4 298.7,220.4 294.7,220.4 290.5,220.4 286.2,220.4 281.7,220.4 276.9,220.4 272.0,220.4" fill="#4477AA" fill-opacity="0.3"/>
<polygon points="272.0,238.7 276.9,238.7 281.7,238.7 286.2,238.7 290.5,238.7 294.7,238.8 298.7,238.8 302.6,238.9 306.3,238.9 309.9,239.0 313.3,239.0 316.6,239.1 319.8,239.2 322.9,239.2 325.9,239.3 328.8,239.4 331.6,239.5 334.4,239.6 337.1,239.7 339.7,239.7 342.3,239.8 344.9,239.9 347.5,240.0 350.0,240.1 352.5,240.2 355.0,240.3 357.5,240.4 360.1,240.5 362.7,240.6 365.3,240.7 367.9,240.8 370.6,240.9 373.4,240.9 376.2,241.0 379.1,241.1 382.1,241.2 385.2,241.3 388.4,241.3 391.7,241.4 395.1,241.5 398.7,241.5 402.4,241.6 406.3,241.6 410.3,241.6 414.5,241.7 418.8,241.7 423.3,241.7 428.1,241.7 433.0,241.7 433.0,341.3 428.1,341.2 423.3,341.2 418.8,341.2 414.5,341.2 410.3,341.2 406.3,341.1 402.4,341.1 398.7,341.0 395.1,341.0 391.7,340.9 388.4,340.8 385.2,340.8 382.1,340.7 379.1,340.6 376.2,340.5 373.4,340.5 370.6,340.4 367.9,340.3 365.3,340.2 362.7,340.1 360.1,340.0 357.5,339.9 355.0,339.8 352.5,339.7 350.0,339.6 347.5,339.5 344.9,339.4 342.3,339.4 339.7,339.3 337.1,339.2 334.4,339.1 331.6,339.0 328.8,338.9 325.9,338.8 322.9,338.8 319.8,338.7 316.6,338.6 313.3,338.5 309.9,338.5 306.3,338.4 302.6,338.4 298.7,338.3 294.7,338.3 290.5,338.3 286.2,338.2 281.7,338.2 276.9,338.2 272.0,338.2" fill="#EE6677" fill-opacity="0.3"/>
<polygon points="272.0,356.5 276.9,356.5 281.7,356.5 286.2,356.6 290.5,356.6 294.7,356.7 298.7,356.8 302.6,356.8 306.3,356.9 309.9,357.1 313.3,357.2 316.6,357.3 319.8,357.4 322.9,357.6 325.9,357.7 328.8,357.9 331.6,358.1 334.4,358.2 337.1,358.4 339.7,358.6 342.3,358.8 344.9,359.0 347.5,359.2 350.0,359.3 352.5,359.5 355.0,359.7 357.5,359.9 360.1,360.1 362.7,360.3 365.3,360.5 367.9,360.7 370.6,360.8 373.4,361.0 376.2,361.2 379.1,361.3 382.1,361.5 385.2,361.6 388.4,361.8 391.7,361.9 395.1,362.0 398.7,362.1 402.4,362.2 406.3,362.3 410.3,362.4 414.5,362.5 418.8,362.5 423.3,362.6 428.1,362.6 433.0,362.6 433.0,462.1 428.1,462.1 423.3,462.1 418.8,462.0 414.5,462.0 410.3,461.9 406.3,461.8 402.4,461.8 398.7,461.7 395.1,461.5 391.7,461.4 388.4,461.3 385.2,461.2 382.1,461.0 379.1,460.9 376.2,460.7 373.4,460.5 370.6,460.4 367.9,460.2 365.3,460.0 362.7,459.8 360.1,459.6 357.5,459.4 355.0,459.2 352.5,459.1 350.0,458.9 347.5,458.7 344.9,458.5 342.3,458.3 339.7,458.1 337.1,457.9 334.4,457.8 331.6,457.6 328.8,457.4 325.9,457.3 322.9,457.1 319.8,457.0 316.6,456.8 313.3,456.7 309.9,456.6 306.3,456.5 302.6,456.4 298.7,456.3 294.7,456.2 290.5,456.1 286.2,456.1 281.7,456.0 276.9,456.0 272.0,456.0" fill="#228833" fill-opacity="0.3"/>
<polygon points="272.0,474.3 276.9,474.3 281.7,474.3 286.2,474.4 290.5,474.5 294.7,474.6 298.7,474.7 302.6,474.8 306.3,475.0 309.9,475.1 313.3,475.3 316.6,475.5 319.8,475.7 322.9,475.9 325.9,476.2 328.8,476.4 331.6,476.7 334.4,476.9 337.1,477.2 339.7,477.5 342.3,477.7 344.9,478.0 347.5,478.3 350.0,478.6 352.5,478.9 355.0,479.2 357.5,479.4 360.1,479.7 362.7,480.0 365.3,480.3 367.9,480.5 370.6,480.8 373.4,481.1 376.2,481.3 379.1,481.6 382.1,481.8 385.2,482.0 388.4,482.2 391.7,482.4 395.1,482.6 398.7,482.8 402.4,482.9 406.3,483.0 410.3,483.2 414.5,483.3 418.8,483.3 423.3,483.4 428.1,483.4 433.0,483.4 433.0,583.0 428.1,582.9 423.3,582.9 418.8,582.9 414.5,582.8 410.3,582.7 406.3,582.6 402.4,582.4 398.7,582.3 395.1,582.1 391.7,581.9 388.4,581.7 385.2,581.5 382.1,581.3 379.1,581.1 376.2,580.8 373.4,580.6 370.6,580.3 367.9,580.1 365.3,579.8 362.7,579.5 360.1,579.2 357.5,579.0 355.0,578.7 352.5,578.4 350.0,578.1 347.5,577.8 344.9,577.5 342.3,577.3 339.7,577.0 337.1,576.7 334.4,576.4 331.6,576.2 328.8,575.9 325.9,575.7 322.9,575.5 319.8,575.2 316.6,575.0 313.3,574.8 309.9,574.7 306.3,574.5 302.6,574.3 298.7,574.2 294.7,574.1 290.5,574.0 286.2,573.9 281.7,573.9 276.9,573.8 272.0,573.8" fill="#CCBB44" fill-opacity="0.3"/>
<polygon points="272.0,592.1 276.9,592.1 281.7,592.2 286.2,592.2 290.5,592.3 294.7,592.5 298.7,592.6 302.6,592.8 306.3,593.0 309.9,593.2 313.3,593.5 316.6,593.7 319.8,594.0 322.9,594.3 325.9,594.6 328.8,594.9 331.6,595.3 334.4,595.6 337.1,596.0 339.7,596.3 342.3,596.7 344.9,597.1 347.5,597.4 350.0,597.8 352.5,598.2 355.0,598.6 357.5,599.0 360.1,599.3 362.7,599.7 365.3,600.1 367.9,600.4 370.6,600.8 373.4,601.1 376.2,601.5 379.1,601.8 382.1,602.1 385.2,602.4 388.4,602.7 391.7,602.9 395.1,603.2 398.7,603.4 402.4,603.6 406.3,603.8 410.3,603.9 414.5,604.1 418.8,604.2 423.3,604.2 428.1,604.3 433.0,604.3 433.0,678.9 428.1,678.9 423.3,678.9 418.8,678.8 414.5,678.7 410.3,678.6 406.3,678.4 402.4,678.2 398.7,678.0 395.1,677.8 391.7,677.6 388.4,677.3 385.2,677.0 382.1,676.7 379.1,676.4 376.2,676.1 373.4,675.8 370.6,675.4 367.9,675.1 365.3,674.7 362.7,674.3 360.1,674.0 357.5,673.6 355.0,673.2 352.5,672.8 350.0,672.5 347.5,672.1 344.9,671.7 342.3,671.3 339.7,671.0 337.1,670.6 334.4,670.2 331.6,669.9 328.8,669.6 325.9,669.2 322.9,668.9 319.8,668.6 316.6,668.4 313.3,668.1 309.9,667.9 306.3,667.6 302.6,667.4 298.7,667.3 294.7,667.1 290.5,667.0 286.2,666.9 281.7,666.8 276.9,666.8 272.0,666.7" fill="#66CCEE" fill-opacity="0.3"/>
<polygon points="272.0,685.0 276.9,685.0 281.7,685.1 286.2,685.2 290.5,685.3 294.7,685.5 298.7,685.7 302.6,685.9 306.3,686.2 309.9,686.4 313.3,686.7 316.6,687.1 319.8,687.4 322.9,687.8 325.9,688.2 328.8,688.6 331.6,689.0 334.4,689.4 337.1,689.9 339.7,690.3 342.3,690.8 344.9,691.2 347.5,691.7 350.0,692.2 352.5,692.6 355.0,693.1 357.5,693.6 360.1,694.1 362.7,694.5 365.3,695.0 367.9,695.4 370.6,695.9 373.4,696.3 376.2,696.7 379.1,697.1 382.1,697.5 385.2,697.9 388.4,698.2 391.7,698.6 395.1,698.9 398.7,699.1 402.4,699.4 406.3,699.6 410.3,699.8 414.5,700.0 418.8,700.1 423.3,700.2 428.1,700.2 433.0,700.3 433.0,750.0 428.1,750.0 423.3,749.9 418.8,749.9 414.5,749.7 410.3,749.6 406.3,749.4 402.4,749.1 398.7,748.9 395.1,748.6 391.7,748.3 388.4,748.0 385.2,747.6 382.1,747.3 379.1,746.9 376.2,746.5 373.4,746.1 370.6,745.6 367.9,745.2 365.3,744.8 362.7,744.3 360.1,743.8 357.5,743.4 355.0,742.9 352.5,742.4 350.0,741.9 347.5,741.5 344.9,741.0 342.3,740.5 339.7,740.1 337.1,739.6 334.4,739.2 331.6,738.7 328.8,738.3 325.9,737.9 322.9,737.5 319.8,737.2 316.6,736.8 313.3,736.5 309.9,736.2 306.3,735.9 302.6,735.7 298.7,735.4 294.7,735.3 290.5,735.1 286.2,735.0 281.7,734.9 276.9,734.8 272.0,734.8" fill="#AA3377" fill-opacity="0.3"/>
<polygon points="272.0,753.1 276.9,753.1 281.7,753.3 286.2,753.6 290.5,753.9 294.7,754.4 298.7,754.9 302.6,755.6 306.3,756.3 309.9,757.1 313.3,757.9 316.6,758.8 319.8,759.8 322.9,760.9 325.9,761.9 328.8,763.1 331.6,764.3 334.4,765.5 337.1,766.7 339.7,768.0 342.3,769.3 344.9,770.6 347.5,772.0 350.0,773.3 352.5,774.7 355.0,776.0 357.5,777.3 360.1,778.7 362.7,780.0 365.3,781.3 367.9,782.6 370.6,783.8 373.4,785.0 376.2,786.2 379.1,787.4 382.1,788.5 385.2,789.5 388.4,790.5 391.7,791.4 395.1,792.3 398.7,793.0 402.4,793.8 406.3,794.4 410.3,794.9 414.5,795.4 418.8,795.8 423.3,796.0 428.1,796.2 433.0,796.2 433.0,846.0 428.1,845.9 423.3,845.8 418.8,845.5 414.5,845.2 410.3,844.7 406.3,844.1 402.4,843.5 398.7,842.8 395.1,842.0 391.7,841.2 388.4,840.2 385.2,839.3 382.1,838.2 379.1,837.1 376.2,836.0 373.4,834.8 370.6,833.6 367.9,832.3 365.3,831.1 362.7,829.8 360.1,828.4 357.5,827.1 355.0,825.8 352.5,824.4 350.0,823.1 347.5,821.7 344.9,820.4 342.3,819.1 339.7,817.8 337.1,816.5 334.4,815.2 331.6,814.0 328.8,812.8 325.9,811.7 322.9,810.6 319.8,809.6 316.6,808.6 313.3,807.7 309.9,806.8 306.3,806.0 302.6,805.3 298.7,804.7 294.7,804.1 290.5,803.7 286.2,803.3 281.7,803.1 276.9,802.9 272.0,802.8" fill="#BBBBBB" fill-opacity="0.3"/>
<polygon points="272.0,821.1 276.9,821.0 281.7,820.8 286.2,820.3 290.5,819.7 294.7,819.0 298.7,818.1 302.6,817.0 306.3,815.9 309.9,814.6 313.3,813.1 316.6,811.6 319.8,810.0 322.9,808.3 325.9,806.5 328.8,804.6 331.6,802.7 334.4,800.7 337.1,798.6 339.7,796.5 342.3,794.4 344.9,792.2 347.5,790.0 350.0,787.8 352.5,785.6 355.0,783.4 357.5,781.1 360.1,778.9 362.7,776.8 365.3,774.6 367.9,772.5 370.6,770.5 373.4,768.5 376.2,766.5 379.1,764.6 382.1,762.8 385.2,761.1 388.4,759.5 391.7,758.0 395.1,756.6 398.7,755.3 402.4,754.1 406.3,753.1 410.3,752.2 414.5,751.4 418.8,750.8 423.3,750.4 428.1,750.1 433.0,750.0 433.0,774.9 428.1,775.0 423.3,775.3 418.8,775.7 414.5,776.3 410.3,777.1 406.3,778.0 402.4,779.0 398.7,780.2 395.1,781.5 391.7,782.9 388.4,784.4 385.2,786.0 382.1,787.7 379.1,789.5 376.2,791.4 373.4,793.3 370.6,795.3 367.9,797.4 365.3,799.5 362.7,801.6 360.1,803.8 357.5,806.0 355.0,808.2 352.5,810.5 350.0,812.7 347.5,814.9 344.9,817.1 342.3,819.3 339.7,821.4 337.1,823.5 334.4,825.6 331.6,827.6 328.8,829.5 325.9,831.4 322.9,833.2 319.8,834.9 316.6,836.5 313.3,838.0 309.9,839.4 306.3,840.7 302.6,841.9 298.7,842.9 294.7,843.8 290.5,844.6 286.2,845.2 281.7,845.6 276.9,845.9 272.0,846.0" fill="#EE9944" fill-opacity="0.55"/>
<polygon points="455.0,96.0 459.9,96.0 464.7,96.0 469.2,96.0 473.5,96.0 477.7,96.0 481.7,96.0 485.6,96.0 489.3,96.0 492.9,96.0 496.3,96.0 499.6,96.0 502.8,96.0 505.9,96.0 508.9,96.0 511.8,96.0 514.6,96.0 517.4,96.0 520.1,96.0 522.7,96.0 525.3,96.0 527.9,96.0 530.5,96.0 533.0,96.0 535.5,96.0 538.0,96.0 540.5,96.0 543.1,96.0 545.7,96.0 548.3,96.0 550.9,96.0 553.6,96.0 556.4,96.0 559.2,96.0 562.1,96.0 565.1,96.0 568.2,96.0 571.4,96.0 574.7,96.0 578.1,96.0 581.7,96.0 585.4,96.0 589.3,96.0 593.3,96.0 597.5,96.0 601.8,96.0 606.3,96.0 611.1,96.0 616.0,96.0 616.0,220.4 611.1,220.4 606.3,220.4 601.8,220.4 597.5,220.4 593.3,220.4 589.3,220.4 585.4,220.4 581.7,220.4 578.1,220.4 574.7,220.4 571.4,220.4 568.2,220.4 565.1,220.4 562.1,220.4 559.2,220.4 556.4,220.4 553.6,220.4 550.9,220.4 548.3,220.4 545.7,220.4 543.1,220.4 540.5,220.4 538.0,220.4 535.5,220.4 533.0,220.4 530.5,220.4 527.9,220.4 525.3,220.4 522.7,220.4 520.1,220.4 517.4,220.4 514.6,220.4 511.8,220.4 508.9,220.4 505.9,220.4 502.8,220.4 499.6,220.4 496.3,220.4 492.9,220.4 489.3,220.4 485.6,220.4 481.7,220.4 477.7,220.4 473.5,220.4 469.2,220.4 464.7,220.4 459.9,220.4 455.0,220.4" fill="#4477AA" fill-opacity="0.3"/>
<polygon points="455.0,241.7 459.9,241.7 464.7,241.8 469.2,241.8 473.5,241.8 477.7,241.9 481.7,241.9 485.6,242.0 489.3,242.0 492.9,242.1 496.3,242.2 499.6,242.3 502.8,242.4 505.9,242.5 508.9,242.6 511.8,242.7 514.6,242.8 517.4,243.0 520.1,243.1 522.7,243.2 525.3,243.3 527.9,243.5 530.5,243.6 533.0,243.7 535.5,243.9 538.0,244.0 540.5,244.1 543.1,244.3 545.7,244.4 548.3,244.5 550.9,244.7 553.6,244.8 556.4,244.9 559.2,245.0 562.1,245.1 565.1,245.2 568.2,245.3 571.4,245.4 574.7,245.5 578.1,245.6 581.7,245.7 585.4,245.8 589.3,245.8 593.3,245.9 597.5,245.9 601.8,246.0 606.3,246.0 611.1,246.0 616.0,246.0 616.0,345.5 611.1,345.5 606.3,345.5 601.8,345.5 597.5,345.4 593.3,345.4 589.3,345.3 585.4,345.3 581.7,345.2 578.1,345.1 574.7,345.0 571.4,345.0 568.2,344.9 565.1,344.8 562.1,344.6 559.2,344.5 556.4,344.4 553.6,344.3 550.9,344.2 548.3,344.0 545.7,343.9 543.1,343.8 540.5,343.7 538.0,343.5 535.5,343.4 533.0,343.3 530.5,343.1 527.9,343.0 525.3,342.9 522.7,342.7 520.1,342.6 517.4,342.5 514.6,342.4 511.8,342.2 508.9,342.1 505.9,342.0 502.8,341.9 499.6,341.8 496.3,341.7 492.9,341.6 489.3,341.6 485.6,341.5 481.7,341.4 477.7,341.4 473.5,341.3 469.2,341.3 464.7,341.3 459.9,341.3 455.0,341.3" fill="#EE6677" fill-opacity="0.3"/>
<polygon points="455.0,362.6 459.9,362.6 464.7,362.6 469.2,362.7 473.5,362.8 477.7,362.8 481.7,363.0 485.6,363.1 489.3,363.2 492.9,363.4 496.3,363.5 499.6,363.7 502.8,363.9 505.9,364.1 508.9,364.3 511.8,364.6 514.6,364.8 517.4,365.0 520.1,365.3 522.7,365.5 525.3,365.8 527.9,366.1 530.5,366.3 533.0,366.6 535.5,366.9 538.0,367.1 540.5,367.4 543.1,367.6 545.7,367.9 548.3,368.2 550.9,368.4 553.6,368.7 556.4,368.9 559.2,369.1 562.1,369.4 565.1,369.6 568.2,369.8 571.4,370.0 574.7,370.2 578.1,370.3 581.7,370.5 585.4,370.6 589.3,370.8 593.3,370.9 597.5,371.0 601.8,371.0 606.3,371.1 611.1,371.1 616.0,371.1 616.0,470.6 611.1,470.6 606.3,470.6 601.8,470.5 597.5,470.5 593.3,470.4 589.3,470.3 585.4,470.1 581.7,470.0 578.1,469.9 574.7,469.7 571.4,469.5 568.2,469.3 565.1,469.1 562.1,468.9 559.2,468.7 556.4,468.4 553.6,468.2 550.9,467.9 548.3,467.7 545.7,467.4 543.1,467.2 540.5,466.9 538.0,466.6 535.5,466.4 533.0,466.1 530.5,465.8 527.9,465.6 525.3,465.3 522.7,465.1 520.1,464.8 517.4,464.6 514.6,464.3 511.8,464.1 508.9,463.9 505.9,463.6 502.8,463.4 499.6,463.2 496.3,463.1 492.9,462.9 489.3,462.7 485.6,462.6 481.7,462.5 477.7,462.4 473.5,462.3 469.2,462.2 464.7,462.1 459.9,462.1 455.0,462.1" fill="#228833" fill-opacity="0.3"/>
<polygon points="455.0,483.4 459.9,483.5 464.7,483.5 469.2,483.6 473.5,483.7 477.7,483.8 481.7,484.0 485.6,484.2 489.3,484.4 492.9,484.6 496.3,484.9 499.6,485.1 502.8,485.4 505.9,485.7 508.9,486.1 511.8,486.4 514.6,486.8 517.4,487.1 520.1,487.5 522.7,487.9 525.3,488.3 527.9,488.6 530.5,489.0 533.0,489.4 535.5,489.8 538.0,490.2 540.5,490.6 543.1,491.0 545.7,491.4 548.3,491.8 550.9,492.2 553.6,492.6 556.4,492.9 559.2,493.3 562.1,493.6 565.1,493.9 568.2,494.2 571.4,494.5 574.7,494.8 578.1,495.1 581.7,495.3 585.4,495.5 589.3,495.7 593.3,495.9 597.5,496.0 601.8,496.1 606.3,496.2 611.1,496.2 616.0,496.2 616.0,595.8 611.1,595.7 606.3,595.7 601.8,595.6 597.5,595.5 593.3,595.4 589.3,595.2 585.4,595.0 581.7,594.8 578.1,594.6 574.7,594.3 571.4,594.1 568.2,593.8 565.1,593.5 562.1,593.1 559.2,592.8 556.4,592.4 553.6,592.1 550.9,591.7 548.3,591.3 545.7,590.9 543.1,590.6 540.5,590.2 538.0,589.8 535.5,589.4 533.0,589.0 530.5,588.6 527.9,588.2 525.3,587.8 522.7,587.4 520.1,587.0 517.4,586.6 514.6,586.3 511.8,585.9 508.9,585.6 505.9,585.3 502.8,585.0 499.6,584.7 496.3,584.4 492.9,584.1 489.3,583.9 485.6,583.7 481.7,583.5 477.7,583.3 473.5,583.2 469.2,583.1 464.7,583.0 459.9,583.0 455.0,583.0" fill="#CCBB44" fill-opacity="0.3"/>
<polygon points="455.0,604.3 459.9,604.3 464.7,604.4 469.2,604.5 473.5,604.6 477.7,604.8 481.7,605.0 485.6,605.3 489.3,605.6 492.9,605.9 496.3,606.2 499.6,606.6 502.8,607.0 505.9,607.4 508.9,607.8 511.8,608.3 514.6,608.7 517.4,609.2 520.1,609.7 522.7,610.2 525.3,610.7 527.9,611.2 530.5,611.8 533.0,612.3 535.5,612.8 538.0,613.4 540.5,613.9 543.1,614.4 545.7,614.9 548.3,615.5 550.9,616.0 553.6,616.5 556.4,616.9 559.2,617.4 562.1,617.9 565.1,618.3 568.2,618.7 571.4,619.1 574.7,619.4 578.1,619.8 581.7,620.1 585.4,620.4 589.3,620.6 593.3,620.8 597.5,621.0 601.8,621.2 606.3,621.3 611.1,621.3 616.0,621.4 616.0,696.0 611.1,696.0 606.3,695.9 601.8,695.8 597.5,695.7 593.3,695.5 589.3,695.3 585.4,695.0 581.7,694.7 578.1,694.4 574.7,694.1 571.4,693.7 568.2,693.3 565.1,692.9 562.1,692.5 559.2,692.0 556.4,691.6 553.6,691.1 550.9,690.6 548.3,690.1 545.7,689.6 543.1,689.1 540.5,688.5 538.0,688.0 535.5,687.5 533.0,686.9 530.5,686.4 527.9,685.9 525.3,685.4 522.7,684.8 520.1,684.3 517.4,683.8 514.6,683.4 511.8,682.9 508.9,682.4 505.9,682.0 502.8,681.6 499.6,681.2 496.3,680.8 492.9,680.5 489.3,680.2 485.6,679.9 481.7,679.7 477.7,679.5 473.5,679.3 469.2,679.1 464.7,679.0 459.9,679.0 455.0,678.9" fill="#66CCEE" fill-opacity="0.3"/>
<polygon points="455.0,700.3 459.9,700.4 464.7,700.6 469.2,701.1 473.5,701.7 477.7,702.4 481.7,703.3 485.6,704.4 489.3,705.5 492.9,706.8 496.3,708.2 499.6,709.8 502.8,711.4 505.9,713.1 508.9,714.9 511.8,716.8 514.6,718.7 517.4,720.7 520.1,722.8 522.7,724.9 525.3,727.0 527.9,729.2 530.5,731.4 533.0,733.6 535.5,735.8 538.0,738.0 540.5,740.2 543.1,742.4 545.7,744.6 548.3,746.8 550.9,748.9 553.6,750.9 556.4,752.9 559.2,754.9 562.1,756.7 565.1,758.5 568.2,760.3 571.4,761.9 574.7,763.4 578.1,764.8 581.7,766.1 585.4,767.3 589.3,768.3 593.3,769.2 597.5,770.0 601.8,770.6 606.3,771.0 611.1,771.3 616.0,771.4 616.0,846.0 611.1,845.9 606.3,845.6 601.8,845.2 597.5,844.6 593.3,843.8 589.3,842.9 585.4,841.9 581.7,840.7 578.1,839.4 574.7,838.0 571.4,836.5 568.2,834.9 565.1,833.2 562.1,831.4 559.2,829.5 556.4,827.6 553.6,825.6 550.9,823.5 548.3,821.4 545.7,819.3 543.1,817.1 540.5,814.9 538.0,812.7 535.5,810.5 533.0,808.2 530.5,806.0 527.9,803.8 525.3,801.6 522.7,799.5 520.1,797.4 517.4,795.3 514.6,793.3 511.8,791.4 508.9,789.5 505.9,787.7 502.8,786.0 499.6,784.4 496.3,782.9 492.9,781.5 489.3,780.2 485.6,779.0 481.7,778.0 477.7,777.1 473.5,776.3 469.2,775.7 464.7,775.3 459.9,775.0 455.0,774.9" fill="#AA3377" fill-opacity="0.3"/>
<polygon points="455.0,796.2 459.9,796.1 464.7,795.7 469.2,795.1 473.5,794.3 477.7,793.2 481.7,791.9 485.6,790.5 489.3,788.8 492.9,787.0 496.3,785.0 499.6,782.9 502.8,780.6 505.9,778.2 508.9,775.6 511.8,773.0 514.6,770.3 517.4,767.4 520.1,764.5 522.7,761.6 525.3,758.5 527.9,755.5 530.5,752.4 533.0,749.3 535.5,746.1 538.0,743.0 540.5,739.9 543.1,736.8 545.7,733.7 548.3,730.7 550.9,727.7 553.6,724.8 556.4,722.0 559.2,719.2 562.1,716.6 565.1,714.1 568.2,711.7 571.4,709.4 574.7,707.2 578.1,705.3 581.7,703.4 585.4,701.8 589.3,700.3 593.3,699.0 597.5,698.0 601.8,697.1 606.3,696.5 611.1,696.1 616.0,696.0 616.0,745.8 611.1,745.9 606.3,746.3 601.8,746.9 597.5,747.7 593.3,748.8 589.3,750.1 585.4,751.5 581.7,753.2 578.1,755.0 574.7,757.0 571.4,759.1 568.2,761.4 565.1,763.8 562.1,766.4 559.2,769.0 556.4,771.7 553.6,774.6 550.9,777.5 548.3,780.4 545.7,783.5 543.1,786.5 540.5,789.6 538.0,792.7 535.5,795.9 533.0,799.0 530.5,802.1 527.9,805.2 525.3,808.3 522.7,811.3 520.1,814.3 517.4,817.2 514.6,820.0 511.8,822.8 508.9,825.4 505.9,827.9 502.8,830.3 499.6,832.6 496.3,834.8 492.9,836.7 489.3,838.6 485.6,840.2 481.7,841.7 477.7,843.0 473.5,844.0 469.2,844.9 464.7,845.5 459.9,845.9 455.0,846.0" fill="#BBBBBB" fill-opacity="0.55"/>
<polygon points="638.0,96.0 642.9,96.0 647.7,96.0 652.2,96.0 656.5,96.0 660.7,96.0 664.7,96.0 668.6,96.0 672.3,96.0 675.9,96.0 679.3,96.0 682.6,96.0 685.8,96.0 688.9,96.0 691.9,96.0 694.8,96.0 697.6,96.0 700.4,96.0 703.1,96.0 705.7,96.0 708.3,96.0 710.9,96.0 713.5,96.0 716.0,96.0 718.5,96.0 721.0,96.0 723.5,96.0 726.1,96.0 728.7,96.0 731.3,96.0 733.9,96.0 736.6,96.0 739.4,96.0 742.2,96.0 745.1,96.0 748.1,96.0 751.2,96.0 754.4,96.0 757.7,96.0 761.1,96.0 764.7,96.0 768.4,96.0 772.3,96.0 776.3,96.0 780.5,96.0 784.8,96.0 789.3,96.0 794.1,96.0 799.0,96.0 799.0,220.4 794.1,220.4 789.3,220.4 784.8,220.4 780.5,220.4 776.3,220.4 772.3,220.4 768.4,220.4 764.7,220.4 761.1,220.4 757.7,220.4 754.4,220.4 751.2,220.4 748.1,220.4 745.1,220.4 742.2,220.4 739.4,220.4 736.6,220.4 733.9,220.4 731.3,220.4 728.7,220.4 726.1,220.4 723.5,220.4 721.0,220.4 718.5,220.4 716.0,220.4 713.5,220.4 710.9,220.4 708.3,220.4 705.7,220.4 703.1,220.4 700.4,220.4 697.6,220.4 694.8,220.4 691.9,220.4 688.9,220.4 685.8,220.4 682.6,220.4 679.3,220.4 675.9,220.4 672.3,220.4 668.6,220.4 664.7,220.4 660.7,220.4 656.5,220.4 652.2,220.4 647.7,220.4 642.9,220.4 638.0,220.4" fill="#4477AA" fill-opacity="0.3"/>
<polygon points="638.0,246.0 642.9,246.0 647.7,246.0 652.2,246.1 656.5,246.1 660.7,246.2 664.7,246.3 668.6,246.4 672.3,246.5 675.9,246.6 679.3,246.7 682.6,246.9 685.8,247.0 688.9,247.2 691.9,247.3 694.8,247.5 697.6,247.7 700.4,247.8 703.1,248.0 705.7,248.2 708.3,248.4 710.9,248.6 713.5,248.8 716.0,249.0 718.5,249.2 721.0,249.4 723.5,249.6 726.1,249.8 728.7,250.0 731.3,250.2 733.9,250.4 736.6,250.6 739.4,250.7 742.2,250.9 745.1,251.1 748.1,251.2 751.2,251.4 754.4,251.5 757.7,251.7 761.1,251.8 764.7,251.9 768.4,252.0 772.3,252.1 776.3,252.2 780.5,252.3 784.8,252.3 789.3,252.4 794.1,252.4 799.0,252.4 799.0,351.9 794.1,351.9 789.3,351.9 784.8,351.8 780.5,351.8 776.3,351.7 772.3,351.6 768.4,351.6 764.7,351.4 761.1,351.3 757.7,351.2 754.4,351.1 751.2,350.9 748.1,350.8 745.1,350.6 742.2,350.4 739.4,350.3 736.6,350.1 733.9,349.9 731.3,349.7 728.7,349.5 726.1,349.3 723.5,349.1 721.0,348.9 718.5,348.7 716.0,348.5 713.5,348.3 710.9,348.1 708.3,347.9 705.7,347.7 703.1,347.5 700.4,347.4 697.6,347.2 694.8,347.0 691.9,346.8 688.9,346.7 685.8,346.5 682.6,346.4 679.3,346.2 675.9,346.1 672.3,346.0 668.6,345.9 664.7,345.8 660.7,345.7 656.5,345.6 652.2,345.6 647.7,345.6 642.9,345.5 638.0,345.5" fill="#EE6677" fill-opacity="0.3"/>
<polygon points="638.0,371.1 642.9,371.2 647.7,371.4 652.2,371.8 656.5,372.4 660.7,373.0 664.7,373.8 668.6,374.7 672.3,375.8 675.9,376.9 679.3,378.1 682.6,379.5 685.8,380.9 688.9,382.4 691.9,384.0 694.8,385.6 697.6,387.3 700.4,389.1 703.1,390.9 705.7,392.8 708.3,394.7 710.9,396.6 713.5,398.5 716.0,400.4 718.5,402.4 721.0,404.4 723.5,406.3 726.1,408.2 728.7,410.1 731.3,412.0 733.9,413.9 736.6,415.7 739.4,417.5 742.2,419.2 745.1,420.8 748.1,422.4 751.2,423.9 754.4,425.3 757.7,426.7 761.1,427.9 764.7,429.0 768.4,430.1 772.3,431.0 776.3,431.8 780.5,432.4 784.8,433.0 789.3,433.4 794.1,433.6 799.0,433.7 799.0,533.2 794.1,533.1 789.3,532.9 784.8,532.5 780.5,532.0 776.3,531.3 772.3,530.5 768.4,529.6 764.7,528.6 761.1,527.4 757.7,526.2 754.4,524.8 751.2,523.4 748.1,521.9 745.1,520.3 742.2,518.7 739.4,517.0 736.6,515.2 733.9,513.4 731.3,511.6 728.7,509.7 726.1,507.8 723.5,505.8 721.0,503.9 718.5,501.9 716.0,500.0 713.5,498.0 710.9,496.1 708.3,494.2 705.7,492.3 703.1,490.4 700.4,488.6 697.6,486.9 694.8,485.1 691.9,483.5 688.9,481.9 685.8,480.4 682.6,479.0 679.3,477.7 675.9,476.4 672.3,475.3 668.6,474.2 664.7,473.3 660.7,472.5 656.5,471.9 652.2,471.3 647.7,471.0 642.9,470.7 638.0,470.6" fill="#228833" fill-opacity="0.3"/>
<polygon points="638.0,496.2 642.9,496.3 647.7,496.6 652.2,497.0 656.5,497.6 660.7,498.3 664.7,499.2 668.6,500.2 672.3,501.3 675.9,502.6 679.3,504.0 682.6,505.4 685.8,507.0 688.9,508.7 691.9,510.4 694.8,512.2 697.6,514.1 700.4,516.1 703.1,518.1 705.7,520.1 708.3,522.2 710.9,524.3 713.5,526.4 716.0,528.6 718.5,530.7 721.0,532.9 723.5,535.0 726.1,537.2 728.7,539.3 731.3,541.3 733.9,543.4 736.6,545.4 739.4,547.3 742.2,549.2 745.1,551.0 748.1,552.8 751.2,554.4 754.4,556.0 757.7,557.5 761.1,558.8 764.7,560.1 768.4,561.2 772.3,562.2 776.3,563.1 780.5,563.8 784.8,564.4 789.3,564.9 794.1,565.1 799.0,565.2 799.0,664.7 794.1,664.6 789.3,664.4 784.8,663.9 780.5,663.4 776.3,662.6 772.3,661.8 768.4,660.7 764.7,659.6 761.1,658.4 757.7,657.0 754.4,655.5 751.2,653.9 748.1,652.3 745.1,650.5 742.2,648.7 739.4,646.8 736.6,644.9 733.9,642.9 731.3,640.9 728.7,638.8 726.1,636.7 723.5,634.5 721.0,632.4 718.5,630.2 716.0,628.1 713.5,625.9 710.9,623.8 708.3,621.7 705.7,619.6 703.1,617.6 700.4,615.6 697.6,613.6 694.8,611.8 691.9,609.9 688.9,608.2 685.8,606.5 682.6,605.0 679.3,603.5 675.9,602.1 672.3,600.9 668.6,599.7 664.7,598.7 660.7,597.8 656.5,597.1 652.2,596.5 647.7,596.1 642.9,595.8 638.0,595.8" fill="#CCBB44" fill-opacity="0.3"/>
<polygon points="638.0,621.4 642.9,621.5 647.7,621.9 652.2,622.5 656.5,623.3 660.7,624.4 664.7,625.7 668.6,627.1 672.3,628.8 675.9,630.6 679.3,632.6 682.6,634.7 685.8,637.0 688.9,639.4 691.9,642.0 694.8,644.6 697.6,647.3 700.4,650.2 703.1,653.1 705.7,656.0 708.3,659.1 710.9,662.1 713.5,665.2 716.0,668.3 718.5,671.5 721.0,674.6 723.5,677.7 726.1,680.8 728.7,683.9 731.3,686.9 733.9,689.9 736.6,692.8 739.4,695.6 742.2,698.4 745.1,701.0 748.1,703.5 751.2,705.9 754.4,708.2 757.7,710.4 761.1,712.3 764.7,714.2 768.4,715.8 772.3,717.3 776.3,718.6 780.5,719.6 784.8,720.5 789.3,721.1 794.1,721.5 799.0,721.6 799.0,846.0 794.1,845.9 789.3,845.5 784.8,844.9 780.5,844.0 776.3,843.0 772.3,841.7 768.4,840.2 764.7,838.6 761.1,836.7 757.7,834.8 754.4,832.6 751.2,830.3 748.1,827.9 745.1,825.4 742.2,822.8 739.4,820.0 736.6,817.2 733.9,814.3 731.3,811.3 728.7,808.3 726.1,805.2 723.5,802.1 721.0,799.0 718.5,795.9 716.0,792.7 713.5,789.6 710.9,786.5 708.3,783.5 705.7,780.4 703.1,777.5 700.4,774.6 697.6,771.7 694.8,769.0 691.9,766.4 688.9,763.8 685.8,761.4 682.6,759.1 679.3,757.0 675.9,755.0 672.3,753.2 668.6,751.5 664.7,750.1 660.7,748.8 656.5,747.7 652.2,746.9 647.7,746.3 642.9,745.9 638.0,745.8" fill="#66CCEE" fill-opacity="0.3"/>
<polygon points="638.0,771.4 642.9,770.8 647.7,769.2 652.2,766.6 656.5,763.1 660.7,758.7 664.7,753.3 668.6,747.2 672.3,740.3 675.9,732.7 679.3,724.3 682.6,715.4 685.8,705.8 688.9,695.7 691.9,685.1 694.8,674.1 697.6,662.6 700.4,650.8 703.1,638.6 705.7,626.2 708.3,613.6 710.9,600.8 713.5,587.8 716.0,574.7 718.5,561.6 721.0,548.5 723.5,535.5 726.1,522.5 728.7,509.7 731.3,497.1 733.9,484.6 736.6,472.5 739.4,460.7 742.2,449.2 745.1,438.2 748.1,427.6 751.2,417.5 754.4,407.9 757.7,398.9 761.1,390.6 764.7,383.0 768.4,376.1 772.3,369.9 776.3,364.6 780.5,360.2 784.8,356.6 789.3,354.0 794.1,352.5 799.0,351.9 799.0,401.7 794.1,402.2 789.3,403.8 784.8,406.4 780.5,409.9 776.3,414.4 772.3,419.7 768.4,425.8 764.7,432.7 761.1,440.4 757.7,448.7 754.4,457.7 751.2,467.2 748.1,477.3 745.1,487.9 742.2,499.0 739.4,510.4 736.6,522.2 733.9,534.4 731.3,546.8 728.7,559.5 726.1,572.3 723.5,585.2 721.0,598.3 718.5,611.4 716.0,624.5 713.5,637.6 710.9,650.5 708.3,663.3 705.7,676.0 703.1,688.4 700.4,700.6 697.6,712.4 694.8,723.8 691.9,734.9 688.9,745.5 685.8,755.6 682.6,765.1 679.3,774.1 675.9,782.4 672.3,790.1 668.6,797.0 664.7,803.1 660.7,808.4 656.5,812.9 652.2,816.4 647.7,819.0 642.9,820.6 638.0,821.1" fill="#AA3377" fill-opacity="0.55"/>
<polygon points="638.0,821.1 642.9,820.9 647.7,820.3 652.2,819.4 656.5,818.0 660.7,816.4 664.7,814.4 668.6,812.1 672.3,809.5 675.9,806.7 679.3,803.6 682.6,800.2 685.8,796.7 688.9,792.9 691.9,789.0 694.8,784.8 697.6,780.6 700.4,776.2 703.1,771.6 705.7,767.0 708.3,762.3 710.9,757.5 713.5,752.7 716.0,747.8 718.5,742.9 721.0,738.0 723.5,733.2 726.1,728.3 728.7,723.6 731.3,718.8 733.9,714.2 736.6,709.7 739.4,705.3 742.2,701.0 745.1,696.9 748.1,692.9 751.2,689.2 754.4,685.6 757.7,682.3 761.1,679.2 764.7,676.3 768.4,673.7 772.3,671.4 776.3,669.5 780.5,667.8 784.8,666.5 789.3,665.5 794.1,664.9 799.0,664.7 799.0,689.6 794.1,689.8 789.3,690.4 784.8,691.4 780.5,692.7 776.3,694.3 772.3,696.3 768.4,698.6 764.7,701.2 761.1,704.0 757.7,707.1 754.4,710.5 751.2,714.0 748.1,717.8 745.1,721.8 742.2,725.9 739.4,730.1 736.6,734.6 733.9,739.1 731.3,743.7 728.7,748.4 726.1,753.2 723.5,758.0 721.0,762.9 718.5,767.8 716.0,772.7 713.5,777.6 710.9,782.4 708.3,787.2 705.7,791.9 703.1,796.5 700.4,801.0 697.6,805.5 694.8,809.7 691.9,813.8 688.9,817.8 685.8,821.6 682.6,825.1 679.3,828.5 675.9,831.6 672.3,834.4 668.6,837.0 664.7,839.3 660.7,841.3 656.5,842.9 652.2,844.2 647.7,845.2 642.9,845.8 638.0,846.0" fill="#AA3377" fill-opacity="0.55"/>
<polygon points="821.0,96.0 825.9,96.0 830.7,96.0 835.2,96.0 839.5,96.1 843.7,96.1 847.7,96.2 851.6,96.2 855.3,96.3 858.9,96.4 862.3,96.4 865.6,96.5 868.8,96.6 871.9,96.7 874.9,96.8 877.8,96.9 880.6,97.0 883.4,97.1 886.1,97.3 888.7,97.4 891.3,97.5 893.9,97.6 896.5,97.8 899.0,97.9 901.5,98.0 904.0,98.1 906.5,98.2 909.1,98.4 911.7,98.5 914.3,98.6 916.9,98.7 919.6,98.9 922.4,99.0 925.2,99.1 928.1,99.2 931.1,99.3 934.2,99.4 937.4,99.5 940.7,99.6 944.1,99.6 947.7,99.7 951.4,99.8 955.3,99.8 959.3,99.9 963.5,99.9 967.8,100.0 972.3,100.0 977.1,100.0 982.0,100.0 982.0,224.4 977.1,224.4 972.3,224.4 967.8,224.4 963.5,224.3 959.3,224.3 955.3,224.2 951.4,224.2 947.7,224.1 944.1,224.0 940.7,224.0 937.4,223.9 934.2,223.8 931.1,223.7 928.1,223.6 925.2,223.5 922.4,223.4 919.6,223.3 916.9,223.1 914.3,223.0 911.7,222.9 909.1,222.8 906.5,222.6 904.0,222.5 901.5,222.4 899.0,222.3 896.5,222.2 893.9,222.0 891.3,221.9 888.7,221.8 886.1,221.7 883.4,221.5 880.6,221.4 877.8,221.3 874.9,221.2 871.9,221.1 868.8,221.0 865.6,220.9 862.3,220.8 858.9,220.8 855.3,220.7 851.6,220.6 847.7,220.6 843.7,220.5 839.5,220.5 835.2,220.4 830.7,220.4 825.9,220.4 821.0,220.4" fill="#4477AA" fill-opacity="0.3"/>
<polygon points="821.0,252.4 825.9,252.4 830.7,252.5 835.2,252.5 839.5,252.6 843.7,252.8 847.7,252.9 851.6,253.1 855.3,253.3 858.9,253.5 862.3,253.7 865.6,254.0 868.8,254.3 871.9,254.6 874.9,254.9 877.8,255.2 880.6,255.5 883.4,255.8 886.1,256.2 888.7,256.6 891.3,256.9 893.9,257.3 896.5,257.7 899.0,258.0 901.5,258.4 904.0,258.8 906.5,259.1 909.1,259.5 911.7,259.9 914.3,260.2 916.9,260.6 919.6,261.0 922.4,261.3 925.2,261.6 928.1,261.9 931.1,262.2 934.2,262.5 937.4,262.8 940.7,263.1 944.1,263.3 947.7,263.5 951.4,263.7 955.3,263.9 959.3,264.0 963.5,264.2 967.8,264.3 972.3,264.3 977.1,264.4 982.0,264.4 982.0,413.7 977.1,413.7 972.3,413.6 967.8,413.5 963.5,413.4 959.3,413.3 955.3,413.2 951.4,413.0 947.7,412.8 944.1,412.6 940.7,412.3 937.4,412.1 934.2,411.8 931.1,411.5 928.1,411.2 925.2,410.9 922.4,410.6 919.6,410.2 916.9,409.9 914.3,409.5 911.7,409.2 909.1,408.8 906.5,408.4 904.0,408.1 901.5,407.7 899.0,407.3 896.5,406.9 893.9,406.6 891.3,406.2 888.7,405.8 886.1,405.5 883.4,405.1 880.6,404.8 877.8,404.5 874.9,404.1 871.9,403.8 868.8,403.6 865.6,403.3 862.3,403.0 858.9,402.8 855.3,402.6 851.6,402.4 847.7,402.2 843.7,402.0 839.5,401.9 835.2,401.8 830.7,401.7 825.9,401.7 821.0,401.7" fill="#EE6677" fill-opacity="0.3"/>
<polygon points="821.0,433.7 825.9,433.7 830.7,433.8 835.2,433.9 839.5,434.1 843.7,434.3 847.7,434.5 851.6,434.8 855.3,435.2 858.9,435.5 862.3,435.9 865.6,436.3 868.8,436.8 871.9,437.3 874.9,437.8 877.8,438.3 880.6,438.9 883.4,439.4 886.1,440.0 888.7,440.6 891.3,441.2 893.9,441.8 896.5,442.4 899.0,443.1 901.5,443.7 904.0,444.3 906.5,444.9 909.1,445.5 911.7,446.2 914.3,446.8 916.9,447.4 919.6,447.9 922.4,448.5 925.2,449.0 928.1,449.6 931.1,450.1 934.2,450.6 937.4,451.0 940.7,451.4 944.1,451.8 947.7,452.2 951.4,452.5 955.3,452.8 959.3,453.1 963.5,453.3 967.8,453.5 972.3,453.6 977.1,453.7 982.0,453.7 982.0,478.6 977.1,478.5 972.3,478.5 967.8,478.3 963.5,478.2 959.3,478.0 955.3,477.7 951.4,477.4 947.7,477.1 944.1,476.7 940.7,476.3 937.4,475.9 934.2,475.4 931.1,475.0 928.1,474.4 925.2,473.9 922.4,473.4 919.6,472.8 916.9,472.2 914.3,471.6 911.7,471.0 909.1,470.4 906.5,469.8 904.0,469.2 901.5,468.6 899.0,467.9 896.5,467.3 893.9,466.7 891.3,466.1 888.7,465.5 886.1,464.9 883.4,464.3 880.6,463.7 877.8,463.2 874.9,462.7 871.9,462.2 868.8,461.7 865.6,461.2 862.3,460.8 858.9,460.4 855.3,460.0 851.6,459.7 847.7,459.4 843.7,459.2 839.5,459.0 835.2,458.8 830.7,458.7 825.9,458.6 821.0,458.6" fill="#228833" fill-opacity="0.55"/>
<polygon points="821.0,458.6 825.9,458.8 830.7,459.5 835.2,460.6 839.5,462.2 843.7,464.1 847.7,466.5 851.6,469.2 855.3,472.2 858.9,475.6 862.3,479.2 865.6,483.2 868.8,487.4 871.9,491.8 874.9,496.5 877.8,501.3 880.6,506.4 883.4,511.6 886.1,516.9 888.7,522.4 891.3,527.9 893.9,533.6 896.5,539.3 899.0,545.0 901.5,550.8 904.0,556.5 906.5,562.3 909.1,568.0 911.7,573.6 914.3,579.2 916.9,584.6 919.6,590.0 922.4,595.2 925.2,600.2 928.1,605.1 931.1,609.7 934.2,614.1 937.4,618.3 940.7,622.3 944.1,625.9 947.7,629.3 951.4,632.3 955.3,635.0 959.3,637.4 963.5,639.3 967.8,640.9 972.3,642.0 977.1,642.7 982.0,643.0 982.0,717.6 977.1,717.4 972.3,716.7 967.8,715.5 963.5,714.0 959.3,712.0 955.3,709.7 951.4,707.0 947.7,703.9 944.1,700.6 940.7,696.9 937.4,693.0 934.2,688.8 931.1,684.3 928.1,679.7 925.2,674.8 922.4,669.8 919.6,664.6 916.9,659.3 914.3,653.8 911.7,648.2 909.1,642.6 906.5,636.9 904.0,631.2 901.5,625.4 899.0,619.6 896.5,613.9 893.9,608.2 891.3,602.6 888.7,597.0 886.1,591.5 883.4,586.2 880.6,581.0 877.8,576.0 874.9,571.1 871.9,566.5 868.8,562.0 865.6,557.8 862.3,553.9 858.9,550.2 855.3,546.9 851.6,543.8 847.7,541.1 843.7,538.8 839.5,536.8 835.2,535.3 830.7,534.1 825.9,533.4 821.0,533.2" fill="#228833" fill-opacity="0.55"/>
<polygon points="821.0,565.2 825.9,565.1 830.7,564.8 835.2,564.2 839.5,563.5 843.7,562.6 847.7,561.5 851.6,560.2 855.3,558.8 858.9,557.2 862.3,555.5 865.6,553.6 868.8,551.7 871.9,549.6 874.9,547.4 877.8,545.1 880.6,542.7 883.4,540.3 886.1,537.8 888.7,535.2 891.3,532.6 893.9,530.0 896.5,527.3 899.0,524.6 901.5,521.9 904.0,519.2 906.5,516.5 909.1,513.8 911.7,511.2 914.3,508.5 916.9,506.0 919.6,503.5 922.4,501.0 925.2,498.7 928.1,496.4 931.1,494.2 934.2,492.1 937.4,490.1 940.7,488.3 944.1,486.6 947.7,485.0 951.4,483.6 955.3,482.3 959.3,481.2 963.5,480.3 967.8,479.5 972.3,479.0 977.1,478.7 982.0,478.6 982.0,603.0 977.1,603.1 972.3,603.4 967.8,603.9 963.5,604.7 959.3,605.6 955.3,606.7 951.4,608.0 947.7,609.4 944.1,611.0 940.7,612.7 937.4,614.5 934.2,616.5 931.1,618.6 928.1,620.8 925.2,623.1 922.4,625.4 919.6,627.9 916.9,630.4 914.3,632.9 911.7,635.6 909.1,638.2 906.5,640.9 904.0,643.6 901.5,646.3 899.0,649.0 896.5,651.7 893.9,654.4 891.3,657.0 888.7,659.6 886.1,662.2 883.4,664.7 880.6,667.1 877.8,669.5 874.9,671.8 871.9,674.0 868.8,676.1 865.6,678.0 862.3,679.9 858.9,681.6 855.3,683.2 851.6,684.6 847.7,685.9 843.7,687.0 839.5,687.9 835.2,688.6 830.7,689.2 825.9,689.5 821.0,689.6" fill="#CCBB44" fill-opacity="0.3"/>
<polygon points="821.0,721.6 825.9,721.6 830.7,721.6 835.2,721.6 839.5,721.5 843.7,721.5 847.7,721.4 851.6,721.4 855.3,721.3 858.9,721.2 862.3,721.2 865.6,721.1 868.8,721.0 871.9,720.9 874.9,720.8 877.8,720.7 880.6,720.6 883.4,720.5 886.1,720.3 888.7,720.2 891.3,720.1 893.9,720.0 896.5,719.8 899.0,719.7 901.5,719.6 904.0,719.5 906.5,719.4 909.1,719.2 911.7,719.1 914.3,719.0 916.9,718.9 919.6,718.7 922.4,718.6 925.2,718.5 928.1,718.4 931.1,718.3 934.2,718.2 937.4,718.1 940.7,718.0 944.1,718.0 947.7,717.9 951.4,717.8 955.3,717.8 959.3,717.7 963.5,717.7 967.8,717.6 972.3,717.6 977.1,717.6 982.0,717.6 982.0,842.0 977.1,842.0 972.3,842.0 967.8,842.0 963.5,842.1 959.3,842.1 955.3,842.2 951.4,842.2 947.7,842.3 944.1,842.4 940.7,842.4 937.4,842.5 934.2,842.6 931.1,842.7 928.1,842.8 925.2,842.9 922.4,843.0 919.6,843.1 916.9,843.3 914.3,843.4 911.7,843.5 909.1,843.6 906.5,843.8 904.0,843.9 901.5,844.0 899.0,844.1 896.5,844.2 893.9,844.4 891.3,844.5 888.7,844.6 886.1,844.7 883.4,844.9 880.6,845.0 877.8,845.1 874.9,845.2 871.9,845.3 868.8,845.4 865.6,845.5 862.3,845.6 858.9,845.6 855.3,845.7 851.6,845.8 847.7,845.8 843.7,845.9 839.5,845.9 835.2,846.0 830.7,846.0 825.9,846.0 821.0,846.0" fill="#66CCEE" fill-opacity="0.3"/>
<polygon points="1004.0,100.0 1008.9,100.0 1013.7,100.1 1018.2,100.2 1022.5,100.4 1026.7,100.6 1030.7,100.9 1034.6,101.2 1038.3,101.5 1041.9,101.8 1045.3,102.2 1048.6,102.7 1051.8,103.1 1054.9,103.6 1057.9,104.1 1060.8,104.6 1063.6,105.2 1066.4,105.7 1069.1,106.3 1071.7,106.9 1074.3,107.5 1076.9,108.1 1079.5,108.8 1082.0,109.4 1084.5,110.0 1087.0,110.6 1089.5,111.2 1092.1,111.9 1094.7,112.5 1097.3,113.1 1099.9,113.7 1102.6,114.3 1105.4,114.8 1108.2,115.4 1111.1,115.9 1114.1,116.4 1117.2,116.9 1120.4,117.3 1123.7,117.8 1127.1,118.2 1130.7,118.5 1134.4,118.8 1138.3,119.1 1142.3,119.4 1146.5,119.6 1150.8,119.8 1155.3,119.9 1160.1,120.0 1165.0,120.0 1165.0,244.4 1160.1,244.4 1155.3,244.3 1150.8,244.2 1146.5,244.0 1142.3,243.8 1138.3,243.5 1134.4,243.2 1130.7,242.9 1127.1,242.6 1123.7,242.2 1120.4,241.7 1117.2,241.3 1114.1,240.8 1111.1,240.3 1108.2,239.8 1105.4,239.2 1102.6,238.7 1099.9,238.1 1097.3,237.5 1094.7,236.9 1092.1,236.3 1089.5,235.6 1087.0,235.0 1084.5,234.4 1082.0,233.8 1079.5,233.2 1076.9,232.5 1074.3,231.9 1071.7,231.3 1069.1,230.7 1066.4,230.1 1063.6,229.6 1060.8,229.0 1057.9,228.5 1054.9,228.0 1051.8,227.5 1048.6,227.1 1045.3,226.6 1041.9,226.2 1038.3,225.9 1034.6,225.6 1030.7,225.3 1026.7,225.0 1022.5,224.8 1018.2,224.6 1013.7,224.5 1008.9,224.4 1004.0,224.4" fill="#4477AA" fill-opacity="0.55"/>
<polygon points="1004.0,264.4 1008.9,264.4 1013.7,264.3 1018.2,264.2 1022.5,264.0 1026.7,263.8 1030.7,263.5 1034.6,263.2 1038.3,262.9 1041.9,262.6 1045.3,262.2 1048.6,261.7 1051.8,261.3 1054.9,260.8 1057.9,260.3 1060.8,259.8 1063.6,259.2 1066.4,258.7 1069.1,258.1 1071.7,257.5 1074.3,256.9 1076.9,256.3 1079.5,255.6 1082.0,255.0 1084.5,254.4 1087.0,253.8 1089.5,253.2 1092.1,252.5 1094.7,251.9 1097.3,251.3 1099.9,250.7 1102.6,250.1 1105.4,249.6 1108.2,249.0 1111.1,248.5 1114.1,248.0 1117.2,247.5 1120.4,247.1 1123.7,246.6 1127.1,246.2 1130.7,245.9 1134.4,245.6 1138.3,245.3 1142.3,245.0 1146.5,244.8 1150.8,244.6 1155.3,244.5 1160.1,244.4 1165.0,244.4 1165.0,393.7 1160.1,393.7 1155.3,393.8 1150.8,393.9 1146.5,394.1 1142.3,394.3 1138.3,394.5 1134.4,394.8 1130.7,395.2 1127.1,395.5 1123.7,395.9 1120.4,396.3 1117.2,396.8 1114.1,397.3 1111.1,397.8 1108.2,398.3 1105.4,398.9 1102.6,399.4 1099.9,400.0 1097.3,400.6 1094.7,401.2 1092.1,401.8 1089.5,402.4 1087.0,403.1 1084.5,403.7 1082.0,404.3 1079.5,404.9 1076.9,405.5 1074.3,406.2 1071.7,406.8 1069.1,407.4 1066.4,407.9 1063.6,408.5 1060.8,409.0 1057.9,409.6 1054.9,410.1 1051.8,410.6 1048.6,411.0 1045.3,411.4 1041.9,411.8 1038.3,412.2 1034.6,412.5 1030.7,412.8 1026.7,413.1 1022.5,413.3 1018.2,413.5 1013.7,413.6 1008.9,413.7 1004.0,413.7" fill="#EE6677" fill-opacity="0.3"/>
<polygon points="1004.0,453.7 1008.9,453.7 1013.7,453.6 1018.2,453.5 1022.5,453.3 1026.7,453.1 1030.7,452.8 1034.6,452.5 1038.3,452.2 1041.9,451.8 1045.3,451.4 1048.6,451.0 1051.8,450.6 1054.9,450.1 1057.9,449.6 1060.8,449.0 1063.6,448.5 1066.4,447.9 1069.1,447.4 1071.7,446.8 1074.3,446.2 1076.9,445.5 1079.5,444.9 1082.0,444.3 1084.5,443.7 1087.0,443.1 1089.5,442.4 1092.1,441.8 1094.7,441.2 1097.3,440.6 1099.9,440.0 1102.6,439.4 1105.4,438.9 1108.2,438.3 1111.1,437.8 1114.1,437.3 1117.2,436.8 1120.4,436.3 1123.7,435.9 1127.1,435.5 1130.7,435.2 1134.4,434.8 1138.3,434.5 1142.3,434.3 1146.5,434.1 1150.8,433.9 1155.3,433.8 1160.1,433.7 1165.0,433.7 1165.0,583.0 1160.1,583.0 1155.3,583.1 1150.8,583.2 1146.5,583.4 1142.3,583.6 1138.3,583.8 1134.4,584.1 1130.7,584.4 1127.1,584.8 1123.7,585.2 1120.4,585.6 1117.2,586.1 1114.1,586.6 1111.1,587.1 1108.2,587.6 1105.4,588.1 1102.6,588.7 1099.9,589.3 1097.3,589.9 1094.7,590.5 1092.1,591.1 1089.5,591.7 1087.0,592.3 1084.5,593.0 1082.0,593.6 1079.5,594.2 1076.9,594.8 1074.3,595.4 1071.7,596.0 1069.1,596.6 1066.4,597.2 1063.6,597.8 1060.8,598.3 1057.9,598.8 1054.9,599.4 1051.8,599.8 1048.6,600.3 1045.3,600.7 1041.9,601.1 1038.3,601.5 1034.6,601.8 1030.7,602.1 1026.7,602.4 1022.5,602.6 1018.2,602.7 1013.7,602.9 1008.9,602.9 1004.0,603.0" fill="#CCBB44" fill-opacity="0.3"/>
<polygon points="1004.0,643.0 1008.9,642.9 1013.7,642.9 1018.2,642.7 1022.5,642.6 1026.7,642.4 1030.7,642.1 1034.6,641.8 1038.3,641.5 1041.9,641.1 1045.3,640.7 1048.6,640.3 1051.8,639.8 1054.9,639.4 1057.9,638.8 1060.8,638.3 1063.6,637.8 1066.4,637.2 1069.1,636.6 1071.7,636.0 1074.3,635.4 1076.9,634.8 1079.5,634.2 1082.0,633.6 1084.5,633.0 1087.0,632.3 1089.5,631.7 1092.1,631.1 1094.7,630.5 1097.3,629.9 1099.9,629.3 1102.6,628.7 1105.4,628.1 1108.2,627.6 1111.1,627.1 1114.1,626.6 1117.2,626.1 1120.4,625.6 1123.7,625.2 1127.1,624.8 1130.7,624.4 1134.4,624.1 1138.3,623.8 1142.3,623.6 1146.5,623.4 1150.8,623.2 1155.3,623.1 1160.1,623.0 1165.0,623.0 1165.0,822.0 1160.1,822.0 1155.3,822.1 1150.8,822.2 1146.5,822.4 1142.3,822.6 1138.3,822.9 1134.4,823.2 1130.7,823.5 1127.1,823.8 1123.7,824.2 1120.4,824.7 1117.2,825.1 1114.1,825.6 1111.1,826.1 1108.2,826.6 1105.4,827.2 1102.6,827.7 1099.9,828.3 1097.3,828.9 1094.7,829.5 1092.1,830.1 1089.5,830.8 1087.0,831.4 1084.5,832.0 1082.0,832.6 1079.5,833.2 1076.9,833.9 1074.3,834.5 1071.7,835.1 1069.1,835.7 1066.4,836.3 1063.6,836.8 1060.8,837.4 1057.9,837.9 1054.9,838.4 1051.8,838.9 1048.6,839.3 1045.3,839.8 1041.9,840.2 1038.3,840.5 1034.6,840.8 1030.7,841.1 1026.7,841.4 1022.5,841.6 1018.2,841.8 1013.7,841.9 1008.9,842.0 1004.0,842.0" fill="#66CCEE" fill-opacity="0.3"/>
<polygon points="1187.0,120.0 1191.9,120.0 1196.7,120.0 1201.2,120.0 1205.5,120.0 1209.7,120.0 1213.7,120.0 1217.6,120.0 1221.3,120.0 1224.9,120.0 1228.3,120.0 1231.6,120.0 1234.8,120.0 1237.9,120.0 1240.9,120.0 1243.8,120.0 1246.6,120.0 1249.4,120.0 1252.1,120.0 1254.7,120.0 1257.3,120.0 1259.9,120.0 1262.5,120.0 1265.0,120.0 1267.5,120.0 1270.0,120.0 1272.5,120.0 1275.1,120.0 1277.7,120.0 1280.3,120.0 1282.9,120.0 1285.6,120.0 1288.4,120.0 1291.2,120.0 1294.1,120.0 1297.1,120.0 1300.2,120.0 1303.4,120.0 1306.7,120.0 1310.1,120.0 1313.7,120.0 1317.4,120.0 1321.3,120.0 1325.3,120.0 1329.5,120.0 1333.8,120.0 1338.3,120.0 1343.1,120.0 1348.0,120.0 1348.0,393.7 1343.1,393.7 1338.3,393.7 1333.8,393.7 1329.5,393.7 1325.3,393.7 1321.3,393.7 1317.4,393.7 1313.7,393.7 1310.1,393.7 1306.7,393.7 1303.4,393.7 1300.2,393.7 1297.1,393.7 1294.1,393.7 1291.2,393.7 1288.4,393.7 1285.6,393.7 1282.9,393.7 1280.3,393.7 1277.7,393.7 1275.1,393.7 1272.5,393.7 1270.0,393.7 1267.5,393.7 1265.0,393.7 1262.5,393.7 1259.9,393.7 1257.3,393.7 1254.7,393.7 1252.1,393.7 1249.4,393.7 1246.6,393.7 1243.8,393.7 1240.9,393.7 1237.9,393.7 1234.8,393.7 1231.6,393.7 1228.3,393.7 1224.9,393.7 1221.3,393.7 1217.6,393.7 1213.7,393.7 1209.7,393.7 1205.5,393.7 1201.2,393.7 1196.7,393.7 1191.9,393.7 1187.0,393.7" fill="#EE6677" fill-opacity="0.3"/>
<polygon points="1187.0,433.7 1191.9,433.6 1196.7,433.5 1201.2,433.2 1205.5,432.9 1209.7,432.5 1213.7,432.0 1217.6,431.4 1221.3,430.7 1224.9,430.0 1228.3,429.2 1231.6,428.3 1234.8,427.4 1237.9,426.5 1240.9,425.5 1243.8,424.4 1246.6,423.3 1249.4,422.2 1252.1,421.0 1254.7,419.8 1257.3,418.6 1259.9,417.4 1262.5,416.2 1265.0,414.9 1267.5,413.7 1270.0,412.4 1272.5,411.2 1275.1,409.9 1277.7,408.7 1280.3,407.5 1282.9,406.3 1285.6,405.2 1288.4,404.1 1291.2,403.0 1294.1,401.9 1297.1,400.9 1300.2,399.9 1303.4,399.0 1306.7,398.2 1310.1,397.4 1313.7,396.6 1317.4,396.0 1321.3,395.4 1325.3,394.9 1329.5,394.5 1333.8,394.1 1338.3,393.9 1343.1,393.7 1348.0,393.7 1348.0,418.6 1343.1,418.6 1338.3,418.8 1333.8,419.0 1329.5,419.3 1325.3,419.8 1321.3,420.3 1317.4,420.9 1313.7,421.5 1310.1,422.3 1306.7,423.0 1303.4,423.9 1300.2,424.8 1297.1,425.8 1294.1,426.8 1291.2,427.8 1288.4,428.9 1285.6,430.1 1282.9,431.2 1280.3,432.4 1277.7,433.6 1275.1,434.8 1272.5,436.1 1270.0,437.3 1267.5,438.6 1265.0,439.8 1262.5,441.1 1259.9,442.3 1257.3,443.5 1254.7,444.7 1252.1,445.9 1249.4,447.1 1246.6,448.2 1243.8,449.3 1240.9,450.3 1237.9,451.3 1234.8,452.3 1231.6,453.2 1228.3,454.1 1224.9,454.9 1221.3,455.6 1217.6,456.3 1213.7,456.8 1209.7,457.3 1205.5,457.8 1201.2,458.1 1196.7,458.4 1191.9,458.5 1187.0,458.6" fill="#CCBB44" fill-opacity="0.55"/>
<polygon points="1187.0,458.6 1191.9,458.6 1196.7,458.6 1201.2,458.6 1205.5,458.6 1209.7,458.6 1213.7,458.6 1217.6,458.6 1221.3,458.6 1224.9,458.6 1228.3,458.6 1231.6,458.6 1234.8,458.6 1237.9,458.6 1240.9,458.6 1243.8,458.6 1246.6,458.6 1249.4,458.6 1252.1,458.6 1254.7,458.6 1257.3,458.6 1259.9,458.6 1262.5,458.6 1265.0,458.6 1267.5,458.6 1270.0,458.6 1272.5,458.6 1275.1,458.6 1277.7,458.6 1280.3,458.6 1282.9,458.6 1285.6,458.6 1288.4,458.6 1291.2,458.6 1294.1,458.6 1297.1,458.6 1300.2,458.6 1303.4,458.6 1306.7,458.6 1310.1,458.6 1313.7,458.6 1317.4,458.6 1321.3,458.6 1325.3,458.6 1329.5,458.6 1333.8,458.6 1338.3,458.6 1343.1,458.6 1348.0,458.6 1348.0,483.4 1343.1,483.4 1338.3,483.4 1333.8,483.4 1329.5,483.4 1325.3,483.4 1321.3,483.4 1317.4,483.4 1313.7,483.4 1310.1,483.4 1306.7,483.4 1303.4,483.4 1300.2,483.4 1297.1,483.4 1294.1,483.4 1291.2,483.4 1288.4,483.4 1285.6,483.4 1282.9,483.4 1280.3,483.4 1277.7,483.4 1275.1,483.4 1272.5,483.4 1270.0,483.4 1267.5,483.4 1265.0,483.4 1262.5,483.4 1259.9,483.4 1257.3,483.4 1254.7,483.4 1252.1,483.4 1249.4,483.4 1246.6,483.4 1243.8,483.4 1240.9,483.4 1237.9,483.4 1234.8,483.4 1231.6,483.4 1228.3,483.4 1224.9,483.4 1221.3,483.4 1217.6,483.4 1213.7,483.4 1209.7,483.4 1205.5,483.4 1201.2,483.4 1196.7,483.4 1191.9,483.4 1187.0,483.4" fill="#CCBB44" fill-opacity="0.55"/>
<polygon points="1187.0,483.4 1191.9,483.7 1196.7,484.7 1201.2,486.1 1205.5,488.1 1209.7,490.7 1213.7,493.7 1217.6,497.2 1221.3,501.1 1224.9,505.5 1228.3,510.2 1231.6,515.3 1234.8,520.8 1237.9,526.5 1240.9,532.6 1243.8,538.9 1246.6,545.4 1249.4,552.2 1252.1,559.1 1254.7,566.2 1257.3,573.4 1259.9,580.7 1262.5,588.1 1265.0,595.5 1267.5,603.0 1270.0,610.4 1272.5,617.9 1275.1,625.3 1277.7,632.6 1280.3,639.8 1282.9,646.8 1285.6,653.8 1288.4,660.5 1291.2,667.0 1294.1,673.3 1297.1,679.4 1300.2,685.1 1303.4,690.6 1306.7,695.7 1310.1,700.4 1313.7,704.8 1317.4,708.7 1321.3,712.2 1325.3,715.2 1329.5,717.8 1333.8,719.8 1338.3,721.3 1343.1,722.2 1348.0,722.5 1348.0,822.0 1343.1,821.7 1338.3,820.8 1333.8,819.3 1329.5,817.3 1325.3,814.8 1321.3,811.7 1317.4,808.2 1313.7,804.3 1310.1,799.9 1306.7,795.2 1303.4,790.1 1300.2,784.6 1297.1,778.9 1294.1,772.9 1291.2,766.6 1288.4,760.0 1285.6,753.3 1282.9,746.4 1280.3,739.3 1277.7,732.1 1275.1,724.8 1272.5,717.4 1270.0,709.9 1267.5,702.5 1265.0,695.0 1262.5,687.6 1259.9,680.2 1257.3,672.9 1254.7,665.7 1252.1,658.6 1249.4,651.7 1246.6,644.9 1243.8,638.4 1240.9,632.1 1237.9,626.1 1234.8,620.3 1231.6,614.9 1228.3,609.8 1224.9,605.0 1221.3,600.7 1217.6,596.7 1213.7,593.2 1209.7,590.2 1205.5,587.7 1201.2,585.6 1196.7,584.2 1191.9,583.3 1187.0,583.0" fill="#CCBB44" fill-opacity="0.55"/>
<polygon points="1187.0,623.0 1191.9,622.8 1196.7,622.3 1201.2,621.4 1205.5,620.2 1209.7,618.7 1213.7,617.0 1217.6,614.9 1221.3,612.6 1224.9,610.1 1228.3,607.3 1231.6,604.3 1234.8,601.2 1237.9,597.8 1240.9,594.3 1243.8,590.6 1246.6,586.8 1249.4,582.9 1252.1,578.8 1254.7,574.7 1257.3,570.5 1259.9,566.2 1262.5,561.9 1265.0,557.6 1267.5,553.2 1270.0,548.8 1272.5,544.5 1275.1,540.2 1277.7,535.9 1280.3,531.7 1282.9,527.6 1285.6,523.5 1288.4,519.6 1291.2,515.8 1294.1,512.1 1297.1,508.6 1300.2,505.2 1303.4,502.1 1306.7,499.1 1310.1,496.3 1313.7,493.8 1317.4,491.5 1321.3,489.4 1325.3,487.7 1329.5,486.2 1333.8,485.0 1338.3,484.1 1343.1,483.6 1348.0,483.4 1348.0,682.5 1343.1,682.7 1338.3,683.2 1333.8,684.0 1329.5,685.2 1325.3,686.7 1321.3,688.5 1317.4,690.5 1313.7,692.8 1310.1,695.4 1306.7,698.1 1303.4,701.1 1300.2,704.3 1297.1,707.6 1294.1,711.2 1291.2,714.8 1288.4,718.7 1285.6,722.6 1282.9,726.6 1280.3,730.8 1277.7,735.0 1275.1,739.2 1272.5,743.5 1270.0,747.9 1267.5,752.2 1265.0,756.6 1262.5,760.9 1259.9,765.3 1257.3,769.5 1254.7,773.7 1252.1,777.9 1249.4,781.9 1246.6,785.8 1243.8,789.6 1240.9,793.3 1237.9,796.8 1234.8,800.2 1231.6,803.4 1228.3,806.4 1224.9,809.1 1221.3,811.7 1217.6,814.0 1213.7,816.0 1209.7,817.8 1205.5,819.3 1201.2,820.4 1196.7,821.3 1191.9,821.8 1187.0,822.0" fill="#66CCEE" fill-opacity="0.3"/>
<rect x="250.0" y="96.0" width="22.0" height="124.4" fill="#4477AA"/>
<text x="212.0" y="165.2" font-size="21" text-anchor="end" fill="#222222" font-weight="normal">Ada</text>
<text x="282.0" y="163.2" font-size="17" text-anchor="start" fill="#222222" font-weight="normal">5</text>
<rect x="250.0" y="238.7" width="22.0" height="99.5" fill="#EE6677"/>
<text x="212.0" y="295.4" font-size="21" text-anchor="end" fill="#222222" font-weight="normal">Ben</text>
<text x="282.0" y="293.4" font-size="17" text-anchor="start" fill="#222222" font-weight="normal">4</text>
<rect x="250.0" y="356.5" width="22.0" height="99.5" fill="#228833"/>
<text x="212.0" y="413.3" font-size="21" text-anchor="end" fill="#222222" font-weight="normal">Gus</text>
<text x="282.0" y="411.3" font-size="17" text-anchor="start" fill="#222222" font-weight="normal">4</text>
<rect x="250.0" y="474.3" width="22.0" height="99.5" fill="#CCBB44"/>
<text x="212.0" y="531.1" font-size="21" text-anchor="end" fill="#222222" font-weight="normal">Finn</text>
<text x="282.0" y="529.1" font-size="17" text-anchor="start" fill="#222222" font-weight="normal">4</text>
<rect x="250.0" y="592.1" width="22.0" height="74.6" fill="#66CCEE"/>
<text x="212.0" y="636.4" font-size="21" text-anchor="end" fill="#222222" font-weight="normal">Hugo</text>
<text x="282.0" y="634.4" font-size="17" text-anchor="start" fill="#222222" font-weight="normal">3</text>
<rect x="250.0" y="685.0" width="22.0" height="49.8" fill="#AA3377"/>
<text x="212.0" y="716.9" font-size="21" text-anchor="end" fill="#222222" font-weight="normal">Emma</text>
<text x="282.0" y="714.9" font-size="17" text-anchor="start" fill="#222222" font-weight="normal">2</text>
<rect x="250.0" y="753.1" width="22.0" height="49.8" fill="#BBBBBB"/>
<text x="212.0" y="785.0" font-size="21" text-anchor="end" fill="#222222" font-weight="normal">Iris</text>
<text x="282.0" y="783.0" font-size="17" text-anchor="start" fill="#222222" font-weight="normal">2</text>
<rect x="250.0" y="821.1" width="22.0" height="24.9" fill="#EE9944"/>
<text x="212.0" y="840.6" font-size="21" text-anchor="end" fill="#222222" font-weight="normal">Cleo</text>
<text x="282.0" y="838.6" font-size="17" text-anchor="start" fill="#222222" font-weight="normal">1</text>
<polyline points="226.0,826.6 240.0,840.6" fill="none" stroke="#CC3311" stroke-width="3.0" stroke-linecap="round" stroke-linejoin="round"/>
<polyline points="240.0,826.6 226.0,840.6" fill="none" stroke="#CC3311" stroke-width="3.0" stroke-linecap="round" stroke-linejoin="round"/>
<rect x="433.0" y="96.0" width="22.0" height="124.4" fill="#4477AA"/>
<text x="465.0" y="163.2" font-size="17" text-anchor="start" fill="#222222" font-weight="normal">5</text>
<rect x="433.0" y="241.7" width="22.0" height="99.5" fill="#EE6677"/>
<text x="465.0" y="296.5" font-size="17" text-anchor="start" fill="#222222" font-weight="normal">4</text>
<rect x="433.0" y="362.6" width="22.0" height="99.5" fill="#228833"/>
<text x="465.0" y="417.3" font-size="17" text-anchor="start" fill="#222222" font-weight="normal">4</text>
<rect x="433.0" y="483.4" width="22.0" height="99.5" fill="#CCBB44"/>
<text x="465.0" y="538.2" font-size="17" text-anchor="start" fill="#222222" font-weight="normal">4</text>
<rect x="433.0" y="604.3" width="22.0" height="74.6" fill="#66CCEE"/>
<text x="465.0" y="646.6" font-size="17" text-anchor="start" fill="#222222" font-weight="normal">3</text>
<rect x="433.0" y="700.3" width="22.0" height="74.6" fill="#AA3377"/>
<text x="465.0" y="742.6" font-size="17" text-anchor="start" fill="#222222" font-weight="normal">3</text>
<rect x="433.0" y="796.2" width="22.0" height="49.8" fill="#BBBBBB"/>
<text x="465.0" y="826.1" font-size="17" text-anchor="start" fill="#222222" font-weight="normal">2</text>
<polyline points="409.0,814.1 423.0,828.1" fill="none" stroke="#CC3311" stroke-width="3.0" stroke-linecap="round" stroke-linejoin="round"/>
<polyline points="423.0,814.1 409.0,828.1" fill="none" stroke="#CC3311" stroke-width="3.0" stroke-linecap="round" stroke-linejoin="round"/>
<rect x="616.0" y="96.0" width="22.0" height="124.4" fill="#4477AA"/>
<text x="648.0" y="163.2" font-size="17" text-anchor="start" fill="#222222" font-weight="normal">5</text>
<rect x="616.0" y="246.0" width="22.0" height="99.5" fill="#EE6677"/>
<text x="648.0" y="300.8" font-size="17" text-anchor="start" fill="#222222" font-weight="normal">4</text>
<rect x="616.0" y="371.1" width="22.0" height="99.5" fill="#228833"/>
<text x="648.0" y="425.9" font-size="17" text-anchor="start" fill="#222222" font-weight="normal">4</text>
<rect x="616.0" y="496.2" width="22.0" height="99.5" fill="#CCBB44"/>
<text x="648.0" y="551.0" font-size="17" text-anchor="start" fill="#222222" font-weight="normal">4</text>
<rect x="616.0" y="621.4" width="22.0" height="124.4" fill="#66CCEE"/>
<text x="648.0" y="688.6" font-size="17" text-anchor="start" fill="#222222" font-weight="normal">5</text>
<rect x="616.0" y="771.4" width="22.0" height="74.6" fill="#AA3377"/>
<text x="648.0" y="813.7" font-size="17" text-anchor="start" fill="#222222" font-weight="normal">3</text>
<polyline points="592.0,801.7 606.0,815.7" fill="none" stroke="#CC3311" stroke-width="3.0" stroke-linecap="round" stroke-linejoin="round"/>
<polyline points="606.0,801.7 592.0,815.7" fill="none" stroke="#CC3311" stroke-width="3.0" stroke-linecap="round" stroke-linejoin="round"/>
<rect x="799.0" y="96.0" width="22.0" height="124.4" fill="#4477AA"/>
<text x="831.0" y="163.2" font-size="17" text-anchor="start" fill="#222222" font-weight="normal">5</text>
<rect x="799.0" y="252.4" width="22.0" height="149.3" fill="#EE6677"/>
<text x="831.0" y="332.0" font-size="17" text-anchor="start" fill="#222222" font-weight="normal">6</text>
<rect x="799.0" y="433.7" width="22.0" height="99.5" fill="#228833"/>
<text x="831.0" y="488.4" font-size="17" text-anchor="start" fill="#222222" font-weight="normal">4</text>
<polyline points="775.0,476.4 789.0,490.4" fill="none" stroke="#CC3311" stroke-width="3.0" stroke-linecap="round" stroke-linejoin="round"/>
<polyline points="789.0,476.4 775.0,490.4" fill="none" stroke="#CC3311" stroke-width="3.0" stroke-linecap="round" stroke-linejoin="round"/>
<rect x="799.0" y="565.2" width="22.0" height="124.4" fill="#CCBB44"/>
<text x="831.0" y="632.4" font-size="17" text-anchor="start" fill="#222222" font-weight="normal">5</text>
<rect x="799.0" y="721.6" width="22.0" height="124.4" fill="#66CCEE"/>
<text x="831.0" y="788.8" font-size="17" text-anchor="start" fill="#222222" font-weight="normal">5</text>
<rect x="982.0" y="100.0" width="22.0" height="124.4" fill="#4477AA"/>
<text x="1014.0" y="167.2" font-size="17" text-anchor="start" fill="#222222" font-weight="normal">5</text>
<polyline points="958.0,155.2 972.0,169.2" fill="none" stroke="#CC3311" stroke-width="3.0" stroke-linecap="round" stroke-linejoin="round"/>
<polyline points="972.0,155.2 958.0,169.2" fill="none" stroke="#CC3311" stroke-width="3.0" stroke-linecap="round" stroke-linejoin="round"/>
<rect x="982.0" y="264.4" width="22.0" height="149.3" fill="#EE6677"/>
<text x="1014.0" y="344.0" font-size="17" text-anchor="start" fill="#222222" font-weight="normal">6</text>
<rect x="982.0" y="453.7" width="22.0" height="149.3" fill="#CCBB44"/>
<text x="1014.0" y="533.3" font-size="17" text-anchor="start" fill="#222222" font-weight="normal">6</text>
<rect x="982.0" y="643.0" width="22.0" height="199.0" fill="#66CCEE"/>
<text x="1014.0" y="747.5" font-size="17" text-anchor="start" fill="#222222" font-weight="normal">8</text>
<rect x="1165.0" y="120.0" width="22.0" height="273.7" fill="#EE6677"/>
<text x="1197.0" y="261.8" font-size="17" text-anchor="start" fill="#222222" font-weight="normal">11</text>
<rect x="1165.0" y="433.7" width="22.0" height="149.3" fill="#CCBB44"/>
<text x="1197.0" y="513.3" font-size="17" text-anchor="start" fill="#222222" font-weight="normal">6</text>
<polyline points="1141.0,501.3 1155.0,515.3" fill="none" stroke="#CC3311" stroke-width="3.0" stroke-linecap="round" stroke-linejoin="round"/>
<polyline points="1155.0,501.3 1141.0,515.3" fill="none" stroke="#CC3311" stroke-width="3.0" stroke-linecap="round" stroke-linejoin="round"/>
<rect x="1165.0" y="623.0" width="22.0" height="199.0" fill="#66CCEE"/>
<text x="1197.0" y="727.5" font-size="17" text-anchor="start" fill="#222222" font-weight="normal">8</text>
<rect x="1348.0" y="120.0" width="22.0" height="298.6" fill="#EE6677"/>
<text x="1380.0" y="275.3" font-size="21" text-anchor="start" fill="#222222" font-weight="bold">12</text>
<polyline points="1323.0,269.3 1329.4,274.9 1339.0,262.9" fill="none" stroke="#228833" stroke-width="3.4" stroke-linecap="round" stroke-linejoin="round"/>
<rect x="1348.0" y="458.6" width="22.0" height="223.9" fill="#66CCEE"/>
<text x="1380.0" y="576.5" font-size="21" text-anchor="start" fill="#222222" font-weight="bold">9</text>
<rect x="1348.0" y="722.5" width="22.0" height="99.5" fill="#C8C8C8"/>
<text x="1380.0" y="778.2" font-size="21" text-anchor="start" fill="#767676" font-weight="normal">4 inactive</text>
<text x="210.0" y="882.0" font-size="19" text-anchor="start" fill="#767676" font-weight="normal">25 ballots counted in round 1 · 7 rounds · elected Ben</text>
</svg>
