<svg xmlns="http://www.w3.org/2000/svg" viewBox="0 0 1600 900" width="1600" height="900" font-family="Helvetica,Arial,sans-serif">
<rect x="0.0" y="0.0" width="1600.0" height="900.0" fill="#FFFFFF"/>
<text x="210.0" y="44.0" font-size="27" text-anchor="start" fill="#222222" font-weight="bold">Felsenthal Ex.2 after the raise — Runoff/IRV: Ben loses by GAINING support</text>
<text x="261.0" y="66.0" font-size="20" text-anchor="middle" fill="#767676" font-weight="normal">Round 1</text>
<text x="1359.0" y="66.0" font-size="20" text-anchor="middle" fill="#767676" font-weight="normal">Round 2</text>
<polygon points="272.0,96.0 304.9,96.0 336.5,96.0 366.8,96.0 395.9,96.0 423.8,96.0 450.6,96.0 476.4,96.0 501.1,96.0 525.0,96.0 547.9,96.0 570.1,96.0 591.4,96.0 612.1,96.0 632.1,96.0 651.6,96.0 670.5,96.0 689.0,96.0 707.0,96.0 724.7,96.0 742.1,96.0 759.3,96.0 776.3,96.0 793.2,96.0 810.0,96.0 826.8,96.0 843.7,96.0 860.7,96.0 877.9,96.0 895.3,96.0 913.0,96.0 931.0,96.0 949.5,96.0 968.4,96.0 987.9,96.0 1007.9,96.0 1028.6,96.0 1049.9,96.0 1072.1,96.0 1095.0,96.0 1118.9,96.0 1143.6,96.0 1169.4,96.0 1196.2,96.0 1224.1,96.0 1253.2,96.0 1283.5,96.0 1315.1,96.0 1348.0,96.0 1348.0,433.9 1315.1,433.9 1283.5,433.9 1253.2,433.9 1224.1,433.9 1196.2,433.9 1169.4,433.9 1143.6,433.9 1118.9,433.9 1095.0,433.9 1072.1,433.9 1049.9,433.9 1028.6,433.9 1007.9,433.9 987.9,433.9 968.4,433.9 949.5,433.9 931.0,433.9 913.0,433.9 895.3,433.9 877.9,433.9 860.7,433.9 843.7,433.9 826.8,433.9 810.0,433.9 793.2,433.9 776.3,433.9 759.3,433.9 742.1,433.9 724.7,433.9 707.0,433.9 689.0,433.9 670.5,433.9 651.6,433.9 632.1,433.9 612.1,433.9 591.4,433.9 570.1,433.9 547.9,433.9 525.0,433.9 501.1,433.9 476.4,433.9 450.6,433.9 423.8,433.9 395.9,433.9 366.8,433.9 336.5,433.9 304.9,433.9 272.0,433.9" fill="#4477AA" fill-opacity="0.3"/>
<polygon points="272.0,449.9 304.9,449.9 336.5,450.0 366.8,450.1 395.9,450.2 423.8,450.4 450.6,450.6 476.4,450.8 501.1,451.1 525.0,451.4 547.9,451.7 570.1,452.0 591.4,452.4 612.1,452.8 632.1,453.2 651.6,453.6 670.5,454.0 689.0,454.5 707.0,454.9 724.7,455.4 742.1,455.9 759.3,456.4 776.3,456.9 793.2,457.4 810.0,457.9 826.8,458.4 843.7,458.9 860.7,459.4 877.9,459.9 895.3,460.3 913.0,460.8 931.0,461.3 949.5,461.7 968.4,462.2 987.9,462.6 1007.9,463.0 1028.6,463.4 1049.9,463.7 1072.1,464.1 1095.0,464.4 1118.9,464.7 1143.6,465.0 1169.4,465.2 1196.2,465.4 1224.1,465.6 1253.2,465.7 1283.5,465.8 1315.1,465.9 1348.0,465.9 1348.0,677.1 1315.1,677.0 1283.5,677.0 1253.2,676.9 1224.1,676.7 1196.2,676.6 1169.4,676.4 1143.6,676.1 1118.9,675.9 1095.0,675.6 1072.1,675.3 1049.9,674.9 1028.6,674.6 1007.9,674.2 987.9,673.8 968.4,673.3 949.5,672.9 931.0,672.5 913.0,672.0 895.3,671.5 877.9,671.0 860.7,670.6 843.7,670.1 826.8,669.6 810.0,669.1 793.2,668.6 776.3,668.1 759.3,667.6 742.1,667.1 724.7,666.6 707.0,666.1 689.0,665.7 670.5,665.2 651.6,664.8 632.1,664.3 612.1,663.9 591.4,663.6 570.1,663.2 547.9,662.9 525.0,662.5 501.1,662.2 476.4,662.0 450.6,661.7 423.8,661.5 395.9,661.4 366.8,661.2 336.5,661.1 304.9,661.1 272.0,661.1" fill="#EE6677" fill-opacity="0.3"/>
<polygon points="272.0,677.1 304.9,677.1 336.5,677.1 366.8,677.1 395.9,677.1 423.8,677.1 450.6,677.1 476.4,677.1 501.1,677.1 525.0,677.1 547.9,677.1 570.1,677.1 591.4,677.1 612.1,677.1 632.1,677.1 651.6,677.1 670.5,677.1 689.0,677.1 707.0,677.1 724.7,677.1 742.1,677.1 759.3,677.1 776.3,677.1 793.2,677.1 810.0,677.1 826.8,677.1 843.7,677.1 860.7,677.1 877.9,677.1 895.3,677.1 913.0,677.1 931.0,677.1 949.5,677.1 968.4,677.1 987.9,677.1 1007.9,677.1 1028.6,677.1 1049.9,677.1 1072.1,677.1 1095.0,677.1 1118.9,677.1 1143.6,677.1 1169.4,677.1 1196.2,677.1 1224.1,677.1 1253.2,677.1 1283.5,677.1 1315.1,677.1 1348.0,677.1 1348.0,846.0 1315.1,846.0 1283.5,846.0 1253.2,846.0 1224.1,846.0 1196.2,846.0 1169.4,846.0 1143.6,846.0 1118.9,846.0 1095.0,846.0 1072.1,846.0 1049.9,846.0 1028.6,846.0 1007.9,846.0 987.9,846.0 968.4,846.0 949.5,846.0 931.0,846.0 913.0,846.0 895.3,846.0 877.9,846.0 860.7,846.0 843.7,846.0 826.8,846.0 810.0,846.0 793.2,846.0 776.3,846.0 759.3,846.0 742.1,846.0 724.7,846.0 707.0,846.0 689.0,846.0 670.5,846.0 651.6,846.0 632.1,846.0 612.1,846.0 591.4,846.0 570.1,846.0 547.9,846.0 525.0,846.0 501.1,846.0 476.4,846.0 450.6,846.0 423.8,846.0 395.9,846.0 366.8,846.0 336.5,846.0 304.9,846.0 272.0,846.0" fill="#228833" fill-opacity="0.55"/>
<rect x="250.0" y="96.0" width="22.0" height="337.9" fill="#4477AA"/>
<text x="212.0" y="271.9" font-size="21" text-anchor="end" fill="#222222" font-weight="normal">Ben</text>
<text x="282.0" y="269.9" font-size="17" text-anchor="start" fill="#222222" font-weight="normal">8</text>
<rect x="250.0" y="449.9" width="22.0" height="211.2" fill="#EE6677"/>
<text x="212.0" y="562.5" font-size="21" text-anchor="end" fill="#222222" font-weight="normal">Ada</text>
<text x="282.0" y="560.5" font-size="17" text-anchor="start" fill="#222222" font-weight="normal">5</text>
<rect x="250.0" y="677.1" width="22.0" height="168.9" fill="#228833"/>
<text x="212.0" y="768.5" font-size="21" text-anchor="end" fill="#222222" font-weight="normal">Cleo</text>
<text x="282.0" y="766.5" font-size="17" text-anchor="start" fill="#222222" font-weight="normal">4</text>
<polyline points="226.0,754.5 240.0,768.5" fill="none" stroke="#CC3311" stroke-width="3.0" stroke-linecap="round" stroke-linejoin="round"/>
<polyline points="240.0,754.5 226.0,768.5" fill="none" stroke="#CC3311" stroke-width="3.0" stroke-linecap="round" stroke-linejoin="round"/>
<rect x="1348.0" y="96.0" width="22.0" height="337.9" fill="#4477AA"/>
<text x="1380.0" y="270.9" font-size="21" text-anchor="start" fill="#222222" font-weight="bold">8</text>
<rect x="1348.0" y="465.9" width="22.0" height="380.1" fill="#EE6677"/>
<text x="1380.0" y="661.9" font-size="21" text-anchor="start" fill="#222222" font-weight="bold">9</text>
<polyline points="1323.0,655.9 1329.4,661.5 1339.0,649.5" fill="none" stroke="#228833" stroke-width="3.4" stroke-linecap="round" stroke-linejoin="round"/>
<text x="210.0" y="882.0" font-size="19" text-anchor="start" fill="#767676" font-weight="normal">17 ballots counted in round 1 · 2 rounds · elected Ada</text>
</svg>
