<svg xmlns="http://www.w3.org/2000/svg" viewBox="0 0 1600 900" width="1600" height="900" font-family="Helvetica,Arial,sans-serif">
<rect x="0.0" y="0.0" width="1600.0" height="900.0" fill="#FFFFFF"/>
<text x="210.0" y="44.0" font-size="27" text-anchor="start" fill="#222222" font-weight="bold">Felsenthal Ex.4 after two no-shows — Runoff/IRV: the abstainers do better</text>
<text x="261.0" y="66.0" font-size="20" text-anchor="middle" fill="#767676" font-weight="normal">Round 1</text>
<text x="1359.0" y="66.0" font-size="20" text-anchor="middle" fill="#767676" font-weight="normal">Round 2</text>
<polygon points="272.0,96.0 304.9,96.0 336.5,96.0 366.8,96.0 395.9,96.0 423.8,96.0 450.6,96.0 476.4,96.0 501.1,96.0 525.0,96.0 547.9,96.0 570.1,96.0 591.4,96.0 612.1,96.0 632.1,96.0 651.6,96.0 670.5,96.0 689.0,96.0 707.0,96.0 724.7,96.0 742.1,96.0 759.3,96.0 776.3,96.0 793.2,96.0 810.0,96.0 826.8,96.0 843.7,96.0 860.7,96.0 877.9,96.0 895.3,96.0 913.0,96.0 931.0,96.0 949.5,96.0 968.4,96.0 987.9,96.0 1007.9,96.0 1028.6,96.0 1049.9,96.0 1072.1,96.0 1095.0,96.0 1118.9,96.0 1143.6,96.0 1169.4,96.0 1196.2,96.0 1224.1,96.0 1253.2,96.0 1283.5,96.0 1315.1,96.0 1348.0,96.0 1348.0,415.1 1315.1,415.1 1283.5,415.1 1253.2,415.1 1224.1,415.1 1196.2,415.1 1169.4,415.1 1143.6,415.1 1118.9,415.1 1095.0,415.1 1072.1,415.1 1049.9,415.1 1028.6,415.1 1007.9,415.1 987.9,415.1 968.4,415.1 949.5,415.1 931.0,415.1 913.0,415.1 895.3,415.1 877.9,415.1 860.7,415.1 843.7,415.1 826.8,415.1 810.0,415.1 793.2,415.1 776.3,415.1 759.3,415.1 742.1,415.1 724.7,415.1 707.0,415.1 689.0,415.1 670.5,415.1 651.6,415.1 632.1,415.1 612.1,415.1 591.4,415.1 570.1,415.1 547.9,415.1 525.0,415.1 501.1,415.1 476.4,415.1 450.6,415.1 423.8,415.1 395.9,415.1 366.8,415.1 336.5,415.1 304.9,415.1 272.0,415.1" fill="#4477AA" fill-opacity="0.3"/>
<polygon points="272.0,431.1 304.9,431.1 336.5,431.2 366.8,431.3 395.9,431.4 423.8,431.6 450.6,431.8 476.4,432.0 501.1,432.3 525.0,432.6 547.9,432.9 570.1,433.2 591.4,433.6 612.1,434.0 632.1,434.4 651.6,434.8 670.5,435.3 689.0,435.7 707.0,436.2 724.7,436.6 742.1,437.1 759.3,437.6 776.3,438.1 793.2,438.6 810.0,439.1 826.8,439.6 843.7,440.1 860.7,440.6 877.9,441.1 895.3,441.6 913.0,442.0 931.0,442.5 949.5,443.0 968.4,443.4 987.9,443.8 1007.9,444.2 1028.6,444.6 1049.9,445.0 1072.1,445.3 1095.0,445.6 1118.9,445.9 1143.6,446.2 1169.4,446.4 1196.2,446.6 1224.1,446.8 1253.2,446.9 1283.5,447.0 1315.1,447.1 1348.0,447.1 1348.0,686.4 1315.1,686.4 1283.5,686.4 1253.2,686.3 1224.1,686.1 1196.2,686.0 1169.4,685.8 1143.6,685.5 1118.9,685.3 1095.0,685.0 1072.1,684.7 1049.9,684.3 1028.6,683.9 1007.9,683.6 987.9,683.2 968.4,682.7 949.5,682.3 931.0,681.8 913.0,681.4 895.3,680.9 877.9,680.4 860.7,679.9 843.7,679.4 826.8,678.9 810.0,678.4 793.2,677.9 776.3,677.4 759.3,677.0 742.1,676.5 724.7,676.0 707.0,675.5 689.0,675.0 670.5,674.6 651.6,674.2 632.1,673.7 612.1,673.3 591.4,672.9 570.1,672.6 547.9,672.2 525.0,671.9 501.1,671.6 476.4,671.4 450.6,671.1 423.8,670.9 395.9,670.8 366.8,670.6 336.5,670.5 304.9,670.5 272.0,670.4" fill="#EE6677" fill-opacity="0.3"/>
<polygon points="272.0,686.4 304.9,686.4 336.5,686.4 366.8,686.4 395.9,686.4 423.8,686.4 450.6,686.4 476.4,686.4 501.1,686.4 525.0,686.4 547.9,686.4 570.1,686.4 591.4,686.4 612.1,686.4 632.1,686.4 651.6,686.4 670.5,686.4 689.0,686.4 707.0,686.4 724.7,686.4 742.1,686.4 759.3,686.4 776.3,686.4 793.2,686.4 810.0,686.4 826.8,686.4 843.7,686.4 860.7,686.4 877.9,686.4 895.3,686.4 913.0,686.4 931.0,686.4 949.5,686.4 968.4,686.4 987.9,686.4 1007.9,686.4 1028.6,686.4 1049.9,686.4 1072.1,686.4 1095.0,686.4 1118.9,686.4 1143.6,686.4 1169.4,686.4 1196.2,686.4 1224.1,686.4 1253.2,686.4 1283.5,686.4 1315.1,686.4 1348.0,686.4 1348.0,846.0 1315.1,846.0 1283.5,846.0 1253.2,846.0 1224.1,846.0 1196.2,846.0 1169.4,846.0 1143.6,846.0 1118.9,846.0 1095.0,846.0 1072.1,846.0 1049.9,846.0 1028.6,846.0 1007.9,846.0 987.9,846.0 968.4,846.0 949.5,846.0 931.0,846.0 913.0,846.0 895.3,846.0 877.9,846.0 860.7,846.0 843.7,846.0 826.8,846.0 810.0,846.0 793.2,846.0 776.3,846.0 759.3,846.0 742.1,846.0 724.7,846.0 707.0,846.0 689.0,846.0 670.5,846.0 651.6,846.0 632.1,846.0 612.1,846.0 591.4,846.0 570.1,846.0 547.9,846.0 525.0,846.0 501.1,846.0 476.4,846.0 450.6,846.0 423.8,846.0 395.9,846.0 366.8,846.0 336.5,846.0 304.9,846.0 272.0,846.0" fill="#228833" fill-opacity="0.55"/>
<rect x="250.0" y="96.0" width="22.0" height="319.1" fill="#4477AA"/>
<text x="212.0" y="262.6" font-size="21" text-anchor="end" fill="#222222" font-weight="normal">Carl</text>
<text x="282.0" y="260.6" font-size="17" text-anchor="start" fill="#222222" font-weight="normal">4</text>
<rect x="250.0" y="431.1" width="22.0" height="239.3" fill="#EE6677"/>
<text x="212.0" y="557.8" font-size="21" text-anchor="end" fill="#222222" font-weight="normal">Beth</text>
<text x="282.0" y="555.8" font-size="17" text-anchor="start" fill="#222222" font-weight="normal">3</text>
<rect x="250.0" y="686.4" width="22.0" height="159.6" fill="#228833"/>
<text x="212.0" y="773.2" font-size="21" text-anchor="end" fill="#222222" font-weight="normal">Andy</text>
<text x="282.0" y="771.2" font-size="17" text-anchor="start" fill="#222222" font-weight="normal">2</text>
<polyline points="226.0,759.2 240.0,773.2" fill="none" stroke="#CC3311" stroke-width="3.0" stroke-linecap="round" stroke-linejoin="round"/>
<polyline points="240.0,759.2 226.0,773.2" fill="none" stroke="#CC3311" stroke-width="3.0" stroke-linecap="round" stroke-linejoin="round"/>
<rect x="1348.0" y="96.0" width="22.0" height="319.1" fill="#4477AA"/>
<text x="1380.0" y="261.6" font-size="21" text-anchor="start" fill="#222222" font-weight="bold">4</text>
<rect x="1348.0" y="447.1" width="22.0" height="398.9" fill="#EE6677"/>
<text x="1380.0" y="652.6" font-size="21" text-anchor="start" fill="#222222" font-weight="bold">5</text>
<polyline points="1323.0,646.6 1329.4,652.2 1339.0,640.2" fill="none" stroke="#228833" stroke-width="3.4" stroke-linecap="round" stroke-linejoin="round"/>
<text x="210.0" y="882.0" font-size="19" text-anchor="start" fill="#767676" font-weight="normal">9 ballots counted in round 1 · 2 rounds · elected Beth</text>
</svg>
