<svg xmlns="http://www.w3.org/2000/svg" viewBox="0 0 1600 900" width="1600" height="900" font-family="Helvetica,Arial,sans-serif">
<rect x="0.0" y="0.0" width="1600.0" height="900.0" fill="#FFFFFF"/>
<text x="210.0" y="44.0" font-size="27" text-anchor="start" fill="#222222" font-weight="bold">BV2133 — Pet poll II (RCV-IRV): transfers elect Fish</text>
<text x="261.0" y="66.0" font-size="20" text-anchor="middle" fill="#767676" font-weight="normal">Round 1</text>
<text x="1359.0" y="66.0" font-size="20" text-anchor="middle" fill="#767676" font-weight="normal">Round 2</text>
<polygon points="272.0,96.0 304.9,96.0 336.5,96.0 366.8,96.0 395.9,96.1 423.8,96.1 450.6,96.2 476.4,96.2 501.1,96.3 525.0,96.4 547.9,96.4 570.1,96.5 591.4,96.6 612.1,96.7 632.1,96.8 651.6,96.9 670.5,97.0 689.0,97.1 707.0,97.3 724.7,97.4 742.1,97.5 759.3,97.6 776.3,97.8 793.2,97.9 810.0,98.0 826.8,98.1 843.7,98.2 860.7,98.4 877.9,98.5 895.3,98.6 913.0,98.7 931.0,98.9 949.5,99.0 968.4,99.1 987.9,99.2 1007.9,99.3 1028.6,99.4 1049.9,99.5 1072.1,99.6 1095.0,99.6 1118.9,99.7 1143.6,99.8 1169.4,99.8 1196.2,99.9 1224.1,99.9 1253.2,100.0 1283.5,100.0 1315.1,100.0 1348.0,100.0 1348.0,385.2 1315.1,385.2 1283.5,385.2 1253.2,385.1 1224.1,385.1 1196.2,385.1 1169.4,385.0 1143.6,385.0 1118.9,384.9 1095.0,384.8 1072.1,384.7 1049.9,384.7 1028.6,384.6 1007.9,384.5 987.9,384.4 968.4,384.3 949.5,384.2 931.0,384.0 913.0,383.9 895.3,383.8 877.9,383.7 860.7,383.6 843.7,383.4 826.8,383.3 810.0,383.2 793.2,383.1 776.3,382.9 759.3,382.8 742.1,382.7 724.7,382.6 707.0,382.5 689.0,382.3 670.5,382.2 651.6,382.1 632.1,382.0 612.1,381.9 591.4,381.8 570.1,381.7 547.9,381.6 525.0,381.6 501.1,381.5 476.4,381.4 450.6,381.4 423.8,381.3 395.9,381.3 366.8,381.2 336.5,381.2 304.9,381.2 272.0,381.2" fill="#4477AA" fill-opacity="0.3"/>
<polygon points="272.0,405.2 304.9,405.2 336.5,405.3 366.8,405.4 395.9,405.6 423.8,405.8 450.6,406.0 476.4,406.3 501.1,406.7 525.0,407.0 547.9,407.4 570.1,407.9 591.4,408.3 612.1,408.8 632.1,409.3 651.6,409.8 670.5,410.4 689.0,410.9 707.0,411.5 724.7,412.1 742.1,412.7 759.3,413.3 776.3,413.9 793.2,414.6 810.0,415.2 826.8,415.8 843.7,416.4 860.7,417.1 877.9,417.7 895.3,418.3 913.0,418.9 931.0,419.4 949.5,420.0 968.4,420.5 987.9,421.1 1007.9,421.6 1028.6,422.1 1049.9,422.5 1072.1,422.9 1095.0,423.3 1118.9,423.7 1143.6,424.0 1169.4,424.3 1196.2,424.6 1224.1,424.8 1253.2,425.0 1283.5,425.1 1315.1,425.2 1348.0,425.2 1348.0,644.6 1315.1,644.5 1283.5,644.5 1253.2,644.3 1224.1,644.2 1196.2,644.0 1169.4,643.7 1143.6,643.4 1118.9,643.1 1095.0,642.7 1072.1,642.3 1049.9,641.9 1028.6,641.4 1007.9,641.0 987.9,640.5 968.4,639.9 949.5,639.4 931.0,638.8 913.0,638.2 895.3,637.6 877.9,637.0 860.7,636.4 843.7,635.8 826.8,635.2 810.0,634.6 793.2,633.9 776.3,633.3 759.3,632.7 742.1,632.1 724.7,631.5 707.0,630.9 689.0,630.3 670.5,629.7 651.6,629.2 632.1,628.7 612.1,628.2 591.4,627.7 570.1,627.2 547.9,626.8 525.0,626.4 501.1,626.0 476.4,625.7 450.6,625.4 423.8,625.2 395.9,625.0 366.8,624.8 336.5,624.7 304.9,624.6 272.0,624.6" fill="#EE6677" fill-opacity="0.3"/>
<polygon points="272.0,648.6 304.9,648.6 336.5,648.5 366.8,648.5 395.9,648.5 423.8,648.4 450.6,648.4 476.4,648.3 501.1,648.3 525.0,648.2 547.9,648.1 570.1,648.0 591.4,647.9 612.1,647.8 632.1,647.7 651.6,647.6 670.5,647.5 689.0,647.4 707.0,647.3 724.7,647.2 742.1,647.1 759.3,646.9 776.3,646.8 793.2,646.7 810.0,646.6 826.8,646.4 843.7,646.3 860.7,646.2 877.9,646.1 895.3,645.9 913.0,645.8 931.0,645.7 949.5,645.6 968.4,645.5 987.9,645.4 1007.9,645.3 1028.6,645.2 1049.9,645.1 1072.1,645.0 1095.0,644.9 1118.9,644.9 1143.6,644.8 1169.4,644.7 1196.2,644.7 1224.1,644.6 1253.2,644.6 1283.5,644.6 1315.1,644.6 1348.0,644.6 1348.0,842.0 1315.1,842.0 1283.5,842.0 1253.2,842.0 1224.1,842.1 1196.2,842.1 1169.4,842.2 1143.6,842.2 1118.9,842.3 1095.0,842.4 1072.1,842.4 1049.9,842.5 1028.6,842.6 1007.9,842.7 987.9,842.8 968.4,842.9 949.5,843.0 931.0,843.1 913.0,843.3 895.3,843.4 877.9,843.5 860.7,843.6 843.7,843.8 826.8,843.9 810.0,844.0 793.2,844.1 776.3,844.2 759.3,844.4 742.1,844.5 724.7,844.6 707.0,844.7 689.0,844.9 670.5,845.0 651.6,845.1 632.1,845.2 612.1,845.3 591.4,845.4 570.1,845.5 547.9,845.6 525.0,845.6 501.1,845.7 476.4,845.8 450.6,845.8 423.8,845.9 395.9,845.9 366.8,846.0 336.5,846.0 304.9,846.0 272.0,846.0" fill="#228833" fill-opacity="0.55"/>
<rect x="250.0" y="96.0" width="22.0" height="285.2" fill="#4477AA"/>
<text x="212.0" y="245.6" font-size="21" text-anchor="end" fill="#222222" font-weight="normal">Dog</text>
<text x="282.0" y="243.6" font-size="17" text-anchor="start" fill="#222222" font-weight="normal">13</text>
<rect x="250.0" y="405.2" width="22.0" height="219.4" fill="#EE6677"/>
<text x="212.0" y="521.9" font-size="21" text-anchor="end" fill="#222222" font-weight="normal">Fish</text>
<text x="282.0" y="519.9" font-size="17" text-anchor="start" fill="#222222" font-weight="normal">10</text>
<rect x="250.0" y="648.6" width="22.0" height="197.4" fill="#228833"/>
<text x="212.0" y="754.3" font-size="21" text-anchor="end" fill="#222222" font-weight="normal">Bird</text>
<text x="282.0" y="752.3" font-size="17" text-anchor="start" fill="#222222" font-weight="normal">9</text>
<polyline points="226.0,740.3 240.0,754.3" fill="none" stroke="#CC3311" stroke-width="3.0" stroke-linecap="round" stroke-linejoin="round"/>
<polyline points="240.0,740.3 226.0,754.3" fill="none" stroke="#CC3311" stroke-width="3.0" stroke-linecap="round" stroke-linejoin="round"/>
<rect x="1348.0" y="100.0" width="22.0" height="285.2" fill="#4477AA"/>
<text x="1380.0" y="248.6" font-size="21" text-anchor="start" fill="#222222" font-weight="bold">13</text>
<rect x="1348.0" y="425.2" width="22.0" height="416.8" fill="#EE6677"/>
<text x="1380.0" y="639.6" font-size="21" text-anchor="start" fill="#222222" font-weight="bold">19</text>
<polyline points="1323.0,633.6 1329.4,639.2 1339.0,627.2" fill="none" stroke="#228833" stroke-width="3.4" stroke-linecap="round" stroke-linejoin="round"/>
<text x="210.0" y="882.0" font-size="19" text-anchor="start" fill="#767676" font-weight="normal">32 ballots counted in round 1 · 2 rounds · elected Fish</text>
</svg>
