<svg xmlns="http://www.w3.org/2000/svg" viewBox="0 0 1600 900" width="1600" height="900" font-family="Helvetica,Arial,sans-serif">
<rect x="0.0" y="0.0" width="1600.0" height="900.0" fill="#FFFFFF"/>
<text x="210.0" y="44.0" font-size="27" text-anchor="start" fill="#222222" font-weight="bold">Center Squeeze — IRV (Hare): the center gets squeezed out</text>
<text x="261.0" y="66.0" font-size="20" text-anchor="middle" fill="#767676" font-weight="normal">Round 1</text>
<text x="1359.0" y="66.0" font-size="20" text-anchor="middle" fill="#767676" font-weight="normal">Round 2</text>
<polygon points="272.0,96.0 304.9,96.0 336.5,96.0 366.8,96.0 395.9,96.0 423.8,96.0 450.6,96.0 476.4,96.0 501.1,96.0 525.0,96.0 547.9,96.0 570.1,96.0 591.4,96.0 612.1,96.0 632.1,96.0 651.6,96.0 670.5,96.0 689.0,96.0 707.0,96.0 724.7,96.0 742.1,96.0 759.3,96.0 776.3,96.0 793.2,96.0 810.0,96.0 826.8,96.0 843.7,96.0 860.7,96.0 877.9,96.0 895.3,96.0 913.0,96.0 931.0,96.0 949.5,96.0 968.4,96.0 987.9,96.0 1007.9,96.0 1028.6,96.0 1049.9,96.0 1072.1,96.0 1095.0,96.0 1118.9,96.0 1143.6,96.0 1169.4,96.0 1196.2,96.0 1224.1,96.0 1253.2,96.0 1283.5,96.0 1315.1,96.0 1348.0,96.0 1348.0,419.1 1315.1,419.1 1283.5,419.1 1253.2,419.1 1224.1,419.1 1196.2,419.1 1169.4,419.1 1143.6,419.1 1118.9,419.1 1095.0,419.1 1072.1,419.1 1049.9,419.1 1028.6,419.1 1007.9,419.1 987.9,419.1 968.4,419.1 949.5,419.1 931.0,419.1 913.0,419.1 895.3,419.1 877.9,419.1 860.7,419.1 843.7,419.1 826.8,419.1 810.0,419.1 793.2,419.1 776.3,419.1 759.3,419.1 742.1,419.1 724.7,419.1 707.0,419.1 689.0,419.1 670.5,419.1 651.6,419.1 632.1,419.1 612.1,419.1 591.4,419.1 570.1,419.1 547.9,419.1 525.0,419.1 501.1,419.1 476.4,419.1 450.6,419.1 423.8,419.1 395.9,419.1 366.8,419.1 336.5,419.1 304.9,419.1 272.0,419.1" fill="#4477AA" fill-opacity="0.3"/>
<polygon points="272.0,435.1 304.9,435.1 336.5,435.2 366.8,435.3 395.9,435.4 423.8,435.6 450.6,435.8 476.4,436.0 501.1,436.3 525.0,436.6 547.9,436.9 570.1,437.2 591.4,437.6 612.1,438.0 632.1,438.4 651.6,438.8 670.5,439.2 689.0,439.7 707.0,440.2 724.7,440.6 742.1,441.1 759.3,441.6 776.3,442.1 793.2,442.6 810.0,443.1 826.8,443.6 843.7,444.1 860.7,444.6 877.9,445.1 895.3,445.6 913.0,446.0 931.0,446.5 949.5,447.0 968.4,447.4 987.9,447.8 1007.9,448.2 1028.6,448.6 1049.9,449.0 1072.1,449.3 1095.0,449.6 1118.9,449.9 1143.6,450.2 1169.4,450.4 1196.2,450.6 1224.1,450.8 1253.2,450.9 1283.5,451.0 1315.1,451.1 1348.0,451.1 1348.0,702.4 1315.1,702.4 1283.5,702.3 1253.2,702.2 1224.1,702.1 1196.2,701.9 1169.4,701.7 1143.6,701.5 1118.9,701.2 1095.0,700.9 1072.1,700.6 1049.9,700.3 1028.6,699.9 1007.9,699.5 987.9,699.1 968.4,698.7 949.5,698.3 931.0,697.8 913.0,697.3 895.3,696.9 877.9,696.4 860.7,695.9 843.7,695.4 826.8,694.9 810.0,694.4 793.2,693.9 776.3,693.4 759.3,692.9 742.1,692.4 724.7,691.9 707.0,691.5 689.0,691.0 670.5,690.5 651.6,690.1 632.1,689.7 612.1,689.3 591.4,688.9 570.1,688.5 547.9,688.2 525.0,687.9 501.1,687.6 476.4,687.3 450.6,687.1 423.8,686.9 395.9,686.7 366.8,686.6 336.5,686.5 304.9,686.4 272.0,686.4" fill="#EE6677" fill-opacity="0.3"/>
<polygon points="272.0,702.4 304.9,702.4 336.5,702.4 366.8,702.4 395.9,702.4 423.8,702.4 450.6,702.4 476.4,702.4 501.1,702.4 525.0,702.4 547.9,702.4 570.1,702.4 591.4,702.4 612.1,702.4 632.1,702.4 651.6,702.4 670.5,702.4 689.0,702.4 707.0,702.4 724.7,702.4 742.1,702.4 759.3,702.4 776.3,702.4 793.2,702.4 810.0,702.4 826.8,702.4 843.7,702.4 860.7,702.4 877.9,702.4 895.3,702.4 913.0,702.4 931.0,702.4 949.5,702.4 968.4,702.4 987.9,702.4 1007.9,702.4 1028.6,702.4 1049.9,702.4 1072.1,702.4 1095.0,702.4 1118.9,702.4 1143.6,702.4 1169.4,702.4 1196.2,702.4 1224.1,702.4 1253.2,702.4 1283.5,702.4 1315.1,702.4 1348.0,702.4 1348.0,846.0 1315.1,846.0 1283.5,846.0 1253.2,846.0 1224.1,846.0 1196.2,846.0 1169.4,846.0 1143.6,846.0 1118.9,846.0 1095.0,846.0 1072.1,846.0 1049.9,846.0 1028.6,846.0 1007.9,846.0 987.9,846.0 968.4,846.0 949.5,846.0 931.0,846.0 913.0,846.0 895.3,846.0 877.9,846.0 860.7,846.0 843.7,846.0 826.8,846.0 810.0,846.0 793.2,846.0 776.3,846.0 759.3,846.0 742.1,846.0 724.7,846.0 707.0,846.0 689.0,846.0 670.5,846.0 651.6,846.0 632.1,846.0 612.1,846.0 591.4,846.0 570.1,846.0 547.9,846.0 525.0,846.0 501.1,846.0 476.4,846.0 450.6,846.0 423.8,846.0 395.9,846.0 366.8,846.0 336.5,846.0 304.9,846.0 272.0,846.0" fill="#228833" fill-opacity="0.55"/>
<rect x="250.0" y="96.0" width="22.0" height="323.1" fill="#4477AA"/>
<text x="212.0" y="264.5" font-size="21" text-anchor="end" fill="#222222" font-weight="normal">Reagan</text>
<text x="282.0" y="262.5" font-size="17" text-anchor="start" fill="#222222" font-weight="normal">45</text>
<rect x="250.0" y="435.1" width="22.0" height="251.3" fill="#EE6677"/>
<text x="212.0" y="567.8" font-size="21" text-anchor="end" fill="#222222" font-weight="normal">Carter</text>
<text x="282.0" y="565.8" font-size="17" text-anchor="start" fill="#222222" font-weight="normal">35</text>
<rect x="250.0" y="702.4" width="22.0" height="143.6" fill="#228833"/>
<text x="212.0" y="781.2" font-size="21" text-anchor="end" fill="#222222" font-weight="normal">Anderson</text>
<text x="282.0" y="779.2" font-size="17" text-anchor="start" fill="#222222" font-weight="normal">20</text>
<polyline points="226.0,767.2 240.0,781.2" fill="none" stroke="#CC3311" stroke-width="3.0" stroke-linecap="round" stroke-linejoin="round"/>
<polyline points="240.0,767.2 226.0,781.2" fill="none" stroke="#CC3311" stroke-width="3.0" stroke-linecap="round" stroke-linejoin="round"/>
<rect x="1348.0" y="96.0" width="22.0" height="323.1" fill="#4477AA"/>
<text x="1380.0" y="263.5" font-size="21" text-anchor="start" fill="#222222" font-weight="bold">45</text>
<rect x="1348.0" y="451.1" width="22.0" height="394.9" fill="#EE6677"/>
<text x="1380.0" y="654.5" font-size="21" text-anchor="start" fill="#222222" font-weight="bold">55</text>
<polyline points="1323.0,648.5 1329.4,654.1 1339.0,642.1" fill="none" stroke="#228833" stroke-width="3.4" stroke-linecap="round" stroke-linejoin="round"/>
<text x="210.0" y="882.0" font-size="19" text-anchor="start" fill="#767676" font-weight="normal">100 ballots counted in round 1 · 2 rounds · elected Carter</text>
</svg>
